<?xml version="1.0" encoding="UTF-8" standalone="no"?>
<!-- Created with Inkscape (http://www.inkscape.org/) -->

<svg
   xmlns:dc="http://purl.org/dc/elements/1.1/"
   xmlns:cc="http://creativecommons.org/ns#"
   xmlns:rdf="http://www.w3.org/1999/02/22-rdf-syntax-ns#"
   xmlns:svg="http://www.w3.org/2000/svg"
   xmlns="http://www.w3.org/2000/svg"
   version="1.1"
   width="1200"
   height="600"
   id="svg2">
  <metadata
     id="metadata8">
    <rdf:RDF>
      <cc:Work
         rdf:about="">
        <dc:format>image/svg+xml</dc:format>
        <dc:type
           rdf:resource="http://purl.org/dc/dcmitype/StillImage" />
        <dc:title></dc:title>
      </cc:Work>
    </rdf:RDF>
  </metadata>
  <defs
     id="defs6" />
  <g
     id="g2989">
    <path
       d="M 0,330.01905 0,60.038104 2.25,59.480825 C 3.4875,59.174321 30.825,59.053248 63,59.211773 L 121.5,59.5 l 5.25005,2.76687 c 2.88752,1.521778 7.35553,4.784278 9.9289,7.25 L 141.3578,74 l 79.45508,0 c 56.64158,0 80.54896,0.327733 83.26484,1.14143 7.66543,2.296621 14.21046,9.813555 18.78332,21.572555 L 325.5,103.5 326,263 l 0.5,159.5 4,0 4,0 0.5,-170 0.5,-170 2.3992,-6 c 6.65778,-16.649979 19.36838,-28.076677 34.90002,-31.374738 7.50562,-1.593779 279.89594,-1.593779 287.40156,0 15.43437,3.277407 28.43128,14.971374 34.87052,31.374738 2.2541,5.742101 2.37841,7.396952 2.89202,38.5 l 0.53668,32.5 30.75,0 c 19.66667,0 30.84011,-0.36043 31,-1 0.1493,-0.59719 -4.04823,-1.2014 -10.42075,-1.5 -9.6264,-0.45107 -10.93578,-0.74467 -13.37887,-3 C 731.11096,137.07094 731,136.12429 731,95.5 731,54.874009 731.11092,53.927919 736.45169,49 l 2.70944,-2.5 36.83887,0 36.83887,0 2.70944,2.5 C 820.88908,53.927919 821,54.874009 821,95.5 c 0,40.56738 -0.11763,41.57911 -5.40076,46.45216 -2.16668,1.99849 -4.04435,2.55351 -10.14923,3 -4.11989,0.30131 -7.48156,0.99784 -7.47036,1.54784 0.0131,0.64259 10.11725,1 28.27035,1 l 28.25,0 0.64249,-35 c 0.73294,-39.927555 2.0253,-51.214113 7.13137,-62.280461 C 865.74476,42.697091 863.85695,43 907.26796,43 l 38.82295,0 2.31257,2.31257 c 3.08936,3.089359 6.22705,11.760557 8.31667,22.98362 1.56196,8.389049 1.76085,24.474264 2.24675,181.70381 l 0.5331,172.5 25.5,0 25.5,0 0.5559,-153 c 0.6043,-166.3109 0.2304,-155.53928 5.9917,-172.64128 5.6018,-16.628581 14.7676,-28.522915 26.9524,-34.975647 L 1048.5,59.5 1122,59.214826 c 40.425,-0.156846 74.5125,-0.03577 75.75,0.269052 l 2.25,0.554226 0,269.980946 L 1200,600 600,600 0,600 0,330.01905 z M 789.5,146.5 c 0,-1.05682 -17.81148,-1.97819 -20.23837,-1.0469 -0.76361,0.29302 -1.09883,1.0013 -0.74492,1.57394 C 769.35667,148.38611 789.5,147.88018 789.5,146.5 z m 13,-57.5 0,-14.5 -11.5,0 -11.5,0 -0.28041,13.449549 c -0.15423,7.397251 -0.0502,14.049571 0.23125,14.782931 0.39371,1.02599 3.10941,1.26815 11.78041,1.05045 L 802.5,103.5 802.5,89 z"
       id="path3019"
       style="fill:#bebebe" />
    <path
       d="M 1.2,428.8 C 0.27537268,427.87537 0,385.42646 0,243.81905 L 0,60.038104 2.25,59.480698 C 3.4875,59.174125 30.6,59.053051 62.5,59.211646 l 58,0.288354 5.38279,2.834134 c 2.96053,1.558774 7.5072,4.821274 10.1037,7.25 L 140.70741,74 l 79.52057,0 c 88.50133,0 84.80007,-0.272975 92.10413,6.792869 4.58276,4.4333 7.86464,9.782295 10.91323,17.787038 L 325.5,104.5 l 0.5,159 0.5,159 4,0 4,0 0.5,-169.5 0.5,-169.5 2.65753,-6.623391 c 3.60147,-8.975971 6.5825,-13.43752 13.04981,-19.530925 6.27486,-5.912086 14.92888,-10.593224 22.59188,-12.220422 7.50483,-1.593611 277.89673,-1.593611 285.40156,0 11.10674,2.358457 23.05568,10.5793 29.96288,20.614383 1.605,2.331804 4.12152,7.281804 5.59228,11 2.65252,6.705797 2.67842,7.018603 3.20908,38.760355 l 0.53498,32 30.75,0 c 19.82415,0 30.75489,-0.35531 30.76377,-1 0.008,-0.5676 -4.28802,-1.2162 -9.93499,-1.5 -9.35932,-0.47038 -10.13765,-0.67774 -13.13693,-3.5 C 731.0543,135.95995 731,135.53954 731,95.5 c 0,-40.040277 0.0543,-40.460444 5.9425,-46 l 3.18883,-3 35.86867,0 35.86867,0 3.18883,3 c 5.88822,5.539556 5.9425,5.959723 5.9425,46 0,39.97583 -0.0632,40.46982 -5.8755,45.93581 -2.68382,2.5239 -4.13919,3.01496 -10.37316,3.5 -4.06705,0.31644 -7.14156,1.00332 -7.00134,1.56419 0.15929,0.63717 10.5,1 28.5,1 l 28.25,0 0.59884,-34 c 0.32935,-18.7 1.13051,-37.375 1.78034,-41.5 2.34209,-14.867049 5.23351,-23.075589 9.34771,-26.537462 L 869.15345,43 l 38.0002,0 38.0002,0 2.76228,2.762289 c 3.51499,3.514987 6.6242,11.826251 8.80393,23.533901 1.56167,8.387937 1.76083,24.450769 2.24675,181.20381 l 0.53319,172 25.5,0 25.5,0 0.556,-152.5 c 0.6045,-165.8096 0.227,-154.98589 6.0073,-172.212669 5.335,-15.899799 15.0373,-28.853841 26.1052,-34.854578 L 1049.5,59.5 l 73,-0.285257 c 40.15,-0.156892 74.0125,-0.03582 75.25,0.269052 l 2.25,0.554309 0,184.373956 c 0,167.20245 -0.1473,184.43049 -1.5818,184.98095 C 1197.5482,429.72686 928.08823,430 599.61821,430 136.44849,430 2.1306542,429.73065 1.2,428.8 z M 789.5,146.5 c 0,-1.05682 -17.81148,-1.97819 -20.23837,-1.0469 -0.76361,0.29302 -1.09883,1.0013 -0.74492,1.57394 C 769.35667,148.38611 789.5,147.88018 789.5,146.5 z m 20.92707,-11.06993 c 0.86346,-0.86346 1.8141,-2.55096 2.11253,-3.75 0.29843,-1.19904 0.4116,-18.52922 0.2515,-38.511509 -0.27746,-34.62944 -0.38204,-36.397893 -2.23223,-37.75 -2.86687,-2.095085 -66.25245,-2.094326 -69.11774,8.28e-4 C 739.57757,56.782056 739.5,58.38376 739.5,95.5 c 0,37.11624 0.0776,38.71794 1.94113,40.08061 1.58286,1.15742 7.98335,1.41939 34.67857,1.41939 28.4147,0 32.94474,-0.2073 34.30737,-1.56993 z m -36.83818,-26.5068 C 771.02791,105.87972 771,105.66495 771,89 c 0,-16.664952 0.0279,-16.879715 2.58889,-19.923275 L 776.17779,66 791,66 l 14.82221,0 2.5889,3.076725 C 810.97209,72.120285 811,72.335048 811,89 c 0,16.66495 -0.0279,16.87972 -2.58889,19.92327 L 805.82221,112 791,112 l -14.82221,0 -2.5889,-3.07673 z M 802.5,89 l 0,-14.5 -11.5,0 -11.5,0 -0.28041,13.449549 c -0.15423,7.397251 -0.0502,14.049571 0.23125,14.782931 0.39371,1.02599 3.10941,1.26815 11.78041,1.05045 L 802.5,103.5 802.5,89 z"
       id="path3017"
       style="fill:#fdb332" />
    <path
       d="M 0.93043347,428.41618 C -0.02329871,427.267 -0.0956731,426.37511 0.66670553,425.16618 1.6212437,423.65253 6.9713684,423.45423 59.108717,423 L 116.5,422.5 117,263 c 0.4649,-148.30263 0.6217,-159.80393 2.23361,-163.829271 3.33974,-8.340196 8.15464,-16.345148 11.4803,-19.08644 l 3.35533,-2.765746 -4.43965,-4.092329 C 121.76397,65.975944 121.99943,66 58.900286,66 28.245095,66 2.4517706,65.726855 1.5817875,65.393011 -0.901298,64.440162 -0.41540632,60.141015 2.25,59.480698 3.4875,59.174125 30.6,59.053051 62.5,59.211646 l 58,0.288354 5.38279,2.834134 c 2.96053,1.558774 7.5072,4.821274 10.1037,7.25 L 140.70741,74 l 79.52057,0 c 88.50133,0 84.80007,-0.272975 92.10413,6.792869 4.58276,4.4333 7.86464,9.782295 10.91323,17.787038 L 325.5,104.5 l 0.5,159 0.5,159 4,0 4,0 0.5,-169.5 0.5,-169.5 2.65753,-6.623391 c 3.60147,-8.975971 6.5825,-13.43752 13.04981,-19.530925 6.27486,-5.912086 14.92888,-10.593224 22.59188,-12.220422 7.50483,-1.593611 277.89673,-1.593611 285.40156,0 11.10674,2.358457 23.05568,10.5793 29.96288,20.614383 1.605,2.331804 4.12152,7.281804 5.59228,11 2.65252,6.705797 2.67842,7.018603 3.20908,38.760355 l 0.53498,32 30.75,0 c 19.82415,0 30.75489,-0.35531 30.76377,-1 0.008,-0.5676 -4.28802,-1.2162 -9.93499,-1.5 -9.35932,-0.47038 -10.13765,-0.67774 -13.13693,-3.5 C 731.0543,135.95995 731,135.53954 731,95.5 c 0,-40.040277 0.0543,-40.460444 5.9425,-46 l 3.18883,-3 35.86867,0 35.86867,0 3.18883,3 c 5.88822,5.539556 5.9425,5.959723 5.9425,46 0,39.97583 -0.0632,40.46982 -5.8755,45.93581 -2.68382,2.5239 -4.13919,3.01496 -10.37316,3.5 -4.06705,0.31644 -7.14156,1.00332 -7.00134,1.56419 0.15929,0.63717 10.5,1 28.5,1 l 28.25,0 0.59884,-34 c 0.32935,-18.7 1.13051,-37.375 1.78034,-41.5 2.34209,-14.867049 5.23351,-23.075589 9.34771,-26.537462 L 869.15345,43 l 38.0002,0 38.0002,0 2.76228,2.762289 c 3.51499,3.514987 6.6242,11.826251 8.80393,23.533901 1.56167,8.387937 1.76083,24.450769 2.24675,181.20381 l 0.53319,172 25.5,0 25.5,0 0.556,-152.5 c 0.6045,-165.8096 0.227,-154.98589 6.0073,-172.212669 5.335,-15.899799 15.0373,-28.853841 26.1052,-34.854578 L 1049.5,59.5 l 73,-0.285257 c 40.15,-0.156892 74.0125,-0.03582 75.25,0.269052 2.6656,0.656694 3.1518,4.956183 0.6682,5.909216 C 1197.5482,65.726855 1165.0049,66 1126.0997,66 c -83.1587,0 -77.887,-0.593034 -88.255,9.928137 -7.5536,7.665271 -11.7,15.091435 -15.2327,27.281983 -4.6659,16.10108 -4.7247,18.41502 -4.4093,173.28988 l 0.2973,146 90.5,0.5133 c 49.775,0.28231 90.6125,0.61981 90.75,0.75 0.9548,0.90398 -0.046,5.1365 -1.3318,5.62971 C 1197.5482,429.72686 928.05333,430 599.54066,430 55.781525,430 2.1270725,429.85804 0.93043347,428.41618 z M 907.75428,309.20653 c 0.27315,-121.70515 0.37641,-118.86205 -4.81953,-132.70653 -1.69969,-4.52879 -3.87404,-7.62514 -8.86763,-12.62778 -5.74396,-5.75437 -7.33737,-6.78267 -12.09145,-7.80312 -4.02548,-0.86406 -29.0467,-1.09506 -94.47567,-0.87222 L 698.5,155.5 698.24288,288 c -0.14142,72.875 -0.0422,133.06458 0.22039,133.75463 0.3796,0.99736 21.86101,1.20242 104.75712,1 L 907.5,422.5 907.75428,309.20653 z M 789.5,146.5 c 0,-1.05682 -17.81148,-1.97819 -20.23837,-1.0469 -0.76361,0.29302 -1.09883,1.0013 -0.74492,1.57394 C 769.35667,148.38611 789.5,147.88018 789.5,146.5 z m 20.92707,-11.06993 c 0.86346,-0.86346 1.8141,-2.55096 2.11253,-3.75 0.29843,-1.19904 0.4116,-18.52922 0.2515,-38.511509 -0.27746,-34.62944 -0.38204,-36.397893 -2.23223,-37.75 -2.86687,-2.095085 -66.25245,-2.094326 -69.11774,8.28e-4 C 739.57757,56.782056 739.5,58.38376 739.5,95.5 c 0,37.11624 0.0776,38.71794 1.94113,40.08061 1.58286,1.15742 7.98335,1.41939 34.67857,1.41939 28.4147,0 32.94474,-0.2073 34.30737,-1.56993 z m -36.83818,-26.5068 C 771.02791,105.87972 771,105.66495 771,89 c 0,-16.664952 0.0279,-16.879715 2.58889,-19.923275 L 776.17779,66 791,66 l 14.82221,0 2.5889,3.076725 C 810.97209,72.120285 811,72.335048 811,89 c 0,16.66495 -0.0279,16.87972 -2.58889,19.92327 L 805.82221,112 791,112 l -14.82221,0 -2.5889,-3.07673 z M 802.5,89 l 0,-14.5 -11.5,0 -11.5,0 -0.28041,13.449549 c -0.15423,7.397251 -0.0502,14.049571 0.23125,14.782931 0.39371,1.02599 3.10941,1.26815 11.78041,1.05045 L 802.5,103.5 802.5,89 z"
       id="path3015"
       style="fill:#49cacf" />
    <path
       d="M 0.93043347,428.41618 C -0.02329871,427.267 -0.0956731,426.37511 0.66670553,425.16618 1.6212437,423.65253 6.9713684,423.45423 59.108717,423 L 116.5,422.5 117,263 c 0.4649,-148.30263 0.6217,-159.80393 2.23361,-163.829271 3.33974,-8.340196 8.15464,-16.345148 11.4803,-19.08644 l 3.35533,-2.765746 -4.43965,-4.092329 C 121.76397,65.975944 121.99943,66 58.900286,66 28.245095,66 2.4517706,65.726855 1.5817875,65.393011 -0.901298,64.440162 -0.41540632,60.141015 2.25,59.480698 3.4875,59.174125 30.6,59.053051 62.5,59.211646 l 58,0.288354 5.38279,2.834134 c 2.96053,1.558774 7.5072,4.821274 10.1037,7.25 L 140.70741,74 l 79.52057,0 c 88.50133,0 84.80007,-0.272975 92.10413,6.792869 4.58276,4.4333 7.86464,9.782295 10.91323,17.787038 L 325.5,104.5 l 0.5,159 0.5,159 4,0 4,0 0.5,-169.5 0.5,-169.5 2.65753,-6.623391 c 3.60147,-8.975971 6.5825,-13.43752 13.04981,-19.530925 6.27486,-5.912086 14.92888,-10.593224 22.59188,-12.220422 7.50483,-1.593611 277.89673,-1.593611 285.40156,0 11.10674,2.358457 23.05568,10.5793 29.96288,20.614383 1.605,2.331804 4.12152,7.281804 5.59228,11 2.65252,6.705797 2.67842,7.018603 3.20908,38.760355 l 0.53498,32 30.75,0 c 19.82415,0 30.75489,-0.35531 30.76377,-1 0.008,-0.5676 -4.28802,-1.2162 -9.93499,-1.5 -9.35932,-0.47038 -10.13765,-0.67774 -13.13693,-3.5 C 731.0543,135.95995 731,135.53954 731,95.5 c 0,-40.040277 0.0543,-40.460444 5.9425,-46 l 3.18883,-3 35.86867,0 35.86867,0 3.18883,3 c 5.88822,5.539556 5.9425,5.959723 5.9425,46 0,39.97583 -0.0632,40.46982 -5.8755,45.93581 -2.68382,2.5239 -4.13919,3.01496 -10.37316,3.5 -4.06705,0.31644 -7.14156,1.00332 -7.00134,1.56419 0.15929,0.63717 10.5,1 28.5,1 l 28.25,0 0.59884,-34 c 0.32935,-18.7 1.13051,-37.375 1.78034,-41.5 2.34209,-14.867049 5.23351,-23.075589 9.34771,-26.537462 L 869.15345,43 l 38.0002,0 38.0002,0 2.76228,2.762289 c 3.51499,3.514987 6.6242,11.826251 8.80393,23.533901 1.56167,8.387937 1.76083,24.450769 2.24675,181.20381 l 0.53319,172 25.5,0 25.5,0 0.556,-152.5 c 0.6045,-165.8096 0.227,-154.98589 6.0073,-172.212669 5.335,-15.899799 15.0373,-28.853841 26.1052,-34.854578 L 1049.5,59.5 l 73,-0.285257 c 40.15,-0.156892 74.0125,-0.03582 75.25,0.269052 2.6656,0.656694 3.1518,4.956183 0.6682,5.909216 C 1197.5482,65.726855 1165.0049,66 1126.0997,66 c -83.1587,0 -77.887,-0.593034 -88.255,9.928137 -7.5536,7.665271 -11.7,15.091435 -15.2327,27.281983 -4.6659,16.10108 -4.7247,18.41502 -4.4093,173.28988 l 0.2973,146 90.5,0.5133 c 49.775,0.28231 90.6125,0.61981 90.75,0.75 0.9548,0.90398 -0.046,5.1365 -1.3318,5.62971 C 1197.5482,429.72686 928.05333,430 599.54066,430 55.781525,430 2.1270725,429.85804 0.93043347,428.41618 z M 907.75428,309.20653 c 0.27315,-121.70515 0.37641,-118.86205 -4.81953,-132.70653 -1.69969,-4.52879 -3.87404,-7.62514 -8.86763,-12.62778 -5.74396,-5.75437 -7.33737,-6.78267 -12.09145,-7.80312 -4.02548,-0.86406 -29.0467,-1.09506 -94.47567,-0.87222 L 698.5,155.5 698.24288,288 c -0.14142,72.875 -0.0422,133.06458 0.22039,133.75463 0.3796,0.99736 21.86101,1.20242 104.75712,1 L 907.5,422.5 907.75428,309.20653 z M 951.5,253 c 0,-134.92972 -0.26772,-171.233613 -1.31263,-178 -1.72971,-11.200762 -4.94994,-22.192287 -6.95813,-23.75 -2.3242,-1.802825 -70.1344,-1.802825 -72.45821,0 -0.88617,0.6875 -2.49103,4.175 -3.56635,7.75 -3.81589,12.686322 -4.67461,23.031258 -4.68998,56.5 l -0.0147,32 11.52269,0.52177 c 10.34094,0.46825 12.03317,0.8156 16.5,3.38675 7.06,4.0638 13.91258,11.66476 17.99355,19.95863 6.66612,13.54774 6.44719,8.95285 6.4664,135.71618 0.01,63.02084 0.3274,114.89337 0.70633,115.27231 0.37894,0.37893 8.59144,0.56643 18.25,0.41667 L 951.5,422.5 951.5,253 z m -162,-106.5 c 0,-1.05682 -17.81148,-1.97819 -20.23837,-1.0469 -0.76361,0.29302 -1.09883,1.0013 -0.74492,1.57394 C 769.35667,148.38611 789.5,147.88018 789.5,146.5 z m 20.92707,-11.06993 c 0.86346,-0.86346 1.8141,-2.55096 2.11253,-3.75 0.29843,-1.19904 0.4116,-18.52922 0.2515,-38.511509 -0.27746,-34.62944 -0.38204,-36.397893 -2.23223,-37.75 -2.86687,-2.095085 -66.25245,-2.094326 -69.11774,8.28e-4 C 739.57757,56.782056 739.5,58.38376 739.5,95.5 c 0,37.11624 0.0776,38.71794 1.94113,40.08061 1.58286,1.15742 7.98335,1.41939 34.67857,1.41939 28.4147,0 32.94474,-0.2073 34.30737,-1.56993 z m -36.83818,-26.5068 C 771.02791,105.87972 771,105.66495 771,89 c 0,-16.664952 0.0279,-16.879715 2.58889,-19.923275 L 776.17779,66 791,66 l 14.82221,0 2.5889,3.076725 C 810.97209,72.120285 811,72.335048 811,89 c 0,16.66495 -0.0279,16.87972 -2.58889,19.92327 L 805.82221,112 791,112 l -14.82221,0 -2.5889,-3.07673 z M 802.5,89 l 0,-14.5 -11.5,0 -11.5,0 -0.28041,13.449549 c -0.15423,7.397251 -0.0502,14.049571 0.23125,14.782931 0.39371,1.02599 3.10941,1.26815 11.78041,1.05045 L 802.5,103.5 802.5,89 z"
       id="path3013"
       style="fill:#6edf6e" />
    <path
       d="M 0.93043347,428.41618 C -0.02329871,427.267 -0.0956731,426.37511 0.66670553,425.16618 1.6212437,423.65253 6.9713684,423.45423 59.108717,423 L 116.5,422.5 117,263 c 0.4649,-148.30263 0.6217,-159.80393 2.23361,-163.829271 3.33974,-8.340196 8.15464,-16.345148 11.4803,-19.08644 l 3.35533,-2.765746 -4.43965,-4.092329 C 121.76397,65.975944 121.99943,66 58.900286,66 28.245095,66 2.4517706,65.726855 1.5817875,65.393011 -0.901298,64.440162 -0.41540632,60.141015 2.25,59.480698 3.4875,59.174125 30.6,59.053051 62.5,59.211646 l 58,0.288354 5.38279,2.834134 c 2.96053,1.558774 7.5072,4.821274 10.1037,7.25 L 140.70741,74 l 79.52057,0 c 88.50133,0 84.80007,-0.272975 92.10413,6.792869 4.58276,4.4333 7.86464,9.782295 10.91323,17.787038 L 325.5,104.5 l 0.5,159 0.5,159 4,0 4,0 0.5,-169.5 0.5,-169.5 2.65753,-6.623391 c 3.60147,-8.975971 6.5825,-13.43752 13.04981,-19.530925 6.27486,-5.912086 14.92888,-10.593224 22.59188,-12.220422 7.50483,-1.593611 277.89673,-1.593611 285.40156,0 11.10674,2.358457 23.05568,10.5793 29.96288,20.614383 1.605,2.331804 4.12152,7.281804 5.59228,11 2.65252,6.705797 2.67842,7.018603 3.20908,38.760355 l 0.53498,32 30.75,0 c 19.82415,0 30.75489,-0.35531 30.76377,-1 0.008,-0.5676 -4.28802,-1.2162 -9.93499,-1.5 -9.35932,-0.47038 -10.13765,-0.67774 -13.13693,-3.5 C 731.0543,135.95995 731,135.53954 731,95.5 c 0,-40.040277 0.0543,-40.460444 5.9425,-46 l 3.18883,-3 35.86867,0 35.86867,0 3.18883,3 c 5.88822,5.539556 5.9425,5.959723 5.9425,46 0,39.97583 -0.0632,40.46982 -5.8755,45.93581 -2.68382,2.5239 -4.13919,3.01496 -10.37316,3.5 -4.06705,0.31644 -7.14156,1.00332 -7.00134,1.56419 0.15929,0.63717 10.5,1 28.5,1 l 28.25,0 0.59884,-34 c 0.32935,-18.7 1.13051,-37.375 1.78034,-41.5 2.34209,-14.867049 5.23351,-23.075589 9.34771,-26.537462 L 869.15345,43 l 38.0002,0 38.0002,0 2.76228,2.762289 c 3.51499,3.514987 6.6242,11.826251 8.80393,23.533901 1.56167,8.387937 1.76083,24.450769 2.24675,181.20381 l 0.53319,172 25.5,0 25.5,0 0.556,-152.5 c 0.6045,-165.8096 0.227,-154.98589 6.0073,-172.212669 5.335,-15.899799 15.0373,-28.853841 26.1052,-34.854578 L 1049.5,59.5 l 73,-0.285257 c 40.15,-0.156892 74.0125,-0.03582 75.25,0.269052 2.6656,0.656694 3.1518,4.956183 0.6682,5.909216 C 1197.5482,65.726855 1165.0049,66 1126.0997,66 c -83.1587,0 -77.887,-0.593034 -88.255,9.928137 -7.5536,7.665271 -11.7,15.091435 -15.2327,27.281983 -4.6659,16.10108 -4.7247,18.41502 -4.4093,173.28988 l 0.2973,146 90.5,0.5133 c 49.775,0.28231 90.6125,0.61981 90.75,0.75 0.9548,0.90398 -0.046,5.1365 -1.3318,5.62971 C 1197.5482,429.72686 928.05333,430 599.54066,430 55.781525,430 2.1270725,429.85804 0.93043347,428.41618 z M 690.75295,256.66856 C 691.02814,76.262456 691.25839,84.363637 685.53469,73.068458 682.62768,67.331742 674.13418,58.619263 668.79158,55.893673 658.91201,50.85349 663.47142,51 516.5,51 369.52858,51 374.08799,50.85349 364.20842,55.893673 c -9.72821,4.962962 -18.90366,17.953387 -21.18771,29.99715 -1.14498,6.037415 -1.48872,335.307837 -0.35123,336.445317 0.36821,0.36821 78.78071,0.55571 174.25,0.41667 L 690.5,422.5 690.75295,256.66856 z m 217.00133,52.53797 c 0.27315,-121.70515 0.37641,-118.86205 -4.81953,-132.70653 -1.69969,-4.52879 -3.87404,-7.62514 -8.86763,-12.62778 -5.74396,-5.75437 -7.33737,-6.78267 -12.09145,-7.80312 -4.02548,-0.86406 -29.0467,-1.09506 -94.47567,-0.87222 L 698.5,155.5 698.24288,288 c -0.14142,72.875 -0.0422,133.06458 0.22039,133.75463 0.3796,0.99736 21.86101,1.20242 104.75712,1 L 907.5,422.5 907.75428,309.20653 z M 951.5,253 c 0,-134.92972 -0.26772,-171.233613 -1.31263,-178 -1.72971,-11.200762 -4.94994,-22.192287 -6.95813,-23.75 -2.3242,-1.802825 -70.1344,-1.802825 -72.45821,0 -0.88617,0.6875 -2.49103,4.175 -3.56635,7.75 -3.81589,12.686322 -4.67461,23.031258 -4.68998,56.5 l -0.0147,32 11.52269,0.52177 c 10.34094,0.46825 12.03317,0.8156 16.5,3.38675 7.06,4.0638 13.91258,11.66476 17.99355,19.95863 6.66612,13.54774 6.44719,8.95285 6.4664,135.71618 0.01,63.02084 0.3274,114.89337 0.70633,115.27231 0.37894,0.37893 8.59144,0.56643 18.25,0.41667 L 951.5,422.5 951.5,253 z m -162,-106.5 c 0,-1.05682 -17.81148,-1.97819 -20.23837,-1.0469 -0.76361,0.29302 -1.09883,1.0013 -0.74492,1.57394 C 769.35667,148.38611 789.5,147.88018 789.5,146.5 z m 20.92707,-11.06993 c 0.86346,-0.86346 1.8141,-2.55096 2.11253,-3.75 0.29843,-1.19904 0.4116,-18.52922 0.2515,-38.511509 -0.27746,-34.62944 -0.38204,-36.397893 -2.23223,-37.75 -2.86687,-2.095085 -66.25245,-2.094326 -69.11774,8.28e-4 C 739.57757,56.782056 739.5,58.38376 739.5,95.5 c 0,37.11624 0.0776,38.71794 1.94113,40.08061 1.58286,1.15742 7.98335,1.41939 34.67857,1.41939 28.4147,0 32.94474,-0.2073 34.30737,-1.56993 z m -36.83818,-26.5068 C 771.02791,105.87972 771,105.66495 771,89 c 0,-16.664952 0.0279,-16.879715 2.58889,-19.923275 L 776.17779,66 791,66 l 14.82221,0 2.5889,3.076725 C 810.97209,72.120285 811,72.335048 811,89 c 0,16.66495 -0.0279,16.87972 -2.58889,19.92327 L 805.82221,112 791,112 l -14.82221,0 -2.5889,-3.07673 z M 802.5,89 l 0,-14.5 -11.5,0 -11.5,0 -0.28041,13.449549 c -0.15423,7.397251 -0.0502,14.049571 0.23125,14.782931 0.39371,1.02599 3.10941,1.26815 11.78041,1.05045 L 802.5,103.5 802.5,89 z"
       id="path3011"
       style="fill:#28c2c7" />
    <path
       d="M 0.93043347,428.41618 C -0.02329871,427.267 -0.0956731,426.37511 0.66670553,425.16618 1.6212437,423.65253 6.9713684,423.45423 59.108717,423 L 116.5,422.5 117,263 c 0.4649,-148.30263 0.6217,-159.80393 2.23361,-163.829271 3.33974,-8.340196 8.15464,-16.345148 11.4803,-19.08644 l 3.35533,-2.765746 -4.43965,-4.092329 C 121.76397,65.975944 121.99943,66 58.900286,66 28.245095,66 2.4517706,65.726855 1.5817875,65.393011 -0.901298,64.440162 -0.41540632,60.141015 2.25,59.480698 3.4875,59.174125 30.6,59.053051 62.5,59.211646 l 58,0.288354 5.38279,2.834134 c 2.96053,1.558774 7.5072,4.821274 10.1037,7.25 L 140.70741,74 l 79.52057,0 c 88.50133,0 84.80007,-0.272975 92.10413,6.792869 4.58276,4.4333 7.86464,9.782295 10.91323,17.787038 L 325.5,104.5 l 0.5,159 0.5,159 4,0 4,0 0.5,-169.5 0.5,-169.5 2.65753,-6.623391 c 3.60147,-8.975971 6.5825,-13.43752 13.04981,-19.530925 6.27486,-5.912086 14.92888,-10.593224 22.59188,-12.220422 7.50483,-1.593611 277.89673,-1.593611 285.40156,0 11.10674,2.358457 23.05568,10.5793 29.96288,20.614383 1.605,2.331804 4.12152,7.281804 5.59228,11 2.65252,6.705797 2.67842,7.018603 3.20908,38.760355 l 0.53498,32 30.75,0 c 19.82415,0 30.75489,-0.35531 30.76377,-1 0.008,-0.5676 -4.28802,-1.2162 -9.93499,-1.5 -9.35932,-0.47038 -10.13765,-0.67774 -13.13693,-3.5 C 731.0543,135.95995 731,135.53954 731,95.5 c 0,-40.040277 0.0543,-40.460444 5.9425,-46 l 3.18883,-3 35.86867,0 35.86867,0 3.18883,3 c 5.88822,5.539556 5.9425,5.959723 5.9425,46 0,39.97583 -0.0632,40.46982 -5.8755,45.93581 -2.68382,2.5239 -4.13919,3.01496 -10.37316,3.5 -4.06705,0.31644 -7.14156,1.00332 -7.00134,1.56419 0.15929,0.63717 10.5,1 28.5,1 l 28.25,0 0.59884,-34 c 0.32935,-18.7 1.13051,-37.375 1.78034,-41.5 2.34209,-14.867049 5.23351,-23.075589 9.34771,-26.537462 L 869.15345,43 l 38.0002,0 38.0002,0 2.76228,2.762289 c 3.51499,3.514987 6.6242,11.826251 8.80393,23.533901 1.56167,8.387937 1.76083,24.450769 2.24675,181.20381 l 0.53319,172 25.5,0 25.5,0 0.556,-152.5 c 0.6045,-165.8096 0.227,-154.98589 6.0073,-172.212669 5.335,-15.899799 15.0373,-28.853841 26.1052,-34.854578 L 1049.5,59.5 l 73,-0.285257 c 40.15,-0.156892 74.0125,-0.03582 75.25,0.269052 2.6656,0.656694 3.1518,4.956183 0.6682,5.909216 C 1197.5482,65.726855 1165.0049,66 1126.0997,66 c -83.1587,0 -77.887,-0.593034 -88.255,9.928137 -7.5536,7.665271 -11.7,15.091435 -15.2327,27.281983 -4.6659,16.10108 -4.7247,18.41502 -4.4093,173.28988 l 0.2973,146 90.5,0.5133 c 49.775,0.28231 90.6125,0.61981 90.75,0.75 0.9548,0.90398 -0.046,5.1365 -1.3318,5.62971 C 1197.5482,429.72686 928.05333,430 599.54066,430 55.781525,430 2.1270725,429.85804 0.93043347,428.41618 z M 690.75295,256.66856 C 691.02814,76.262456 691.25839,84.363637 685.53469,73.068458 682.62768,67.331742 674.13418,58.619263 668.79158,55.893673 658.91201,50.85349 663.47142,51 516.5,51 369.52858,51 374.08799,50.85349 364.20842,55.893673 c -9.72821,4.962962 -18.90366,17.953387 -21.18771,29.99715 -1.14498,6.037415 -1.48872,335.307837 -0.35123,336.445317 0.36821,0.36821 78.78071,0.55571 174.25,0.41667 L 690.5,422.5 690.75295,256.66856 z m 217.00133,52.53797 c 0.27315,-121.70515 0.37641,-118.86205 -4.81953,-132.70653 -1.69969,-4.52879 -3.87404,-7.62514 -8.86763,-12.62778 -5.74396,-5.75437 -7.33737,-6.78267 -12.09145,-7.80312 -4.02548,-0.86406 -29.0467,-1.09506 -94.47567,-0.87222 L 698.5,155.5 698.24288,288 c -0.14142,72.875 -0.0422,133.06458 0.22039,133.75463 0.3796,0.99736 21.86101,1.20242 104.75712,1 L 907.5,422.5 907.75428,309.20653 z M 951.5,252.5 c 0,-177.318097 -0.005,-177.562987 -4.17142,-192.5 -0.84371,-3.025 -2.17317,-6.5125 -2.95435,-7.75 L 942.95389,50 907,50 l -35.95389,0 -1.4448,2.25 c -0.79464,1.2375 -2.13348,4.725 -2.97522,7.75 -3.34633,12.026 -4.11166,22.245504 -4.11891,55 l -0.007,32.5 11,0.53411 c 11.98224,0.58179 16.6582,2.15204 23.67409,7.95005 5.42613,4.48421 11.42868,14.11295 14.56166,23.35845 L 914.5,187.5 914.75782,304 c 0.1418,64.075 0.46918,117.07292 0.72751,117.77317 0.36146,0.97982 4.56447,1.21022 18.24217,1 L 951.5,422.5 l 0,-170 z M 317.76501,262.75 317.5,103.5 315.09499,97.527727 c -1.32738,-3.296231 -4.32186,-8.001046 -6.68295,-10.5 L 304.1341,82.5 l -82.6341,0 -82.6341,0 -4.27794,4.527727 c -2.36109,2.498954 -5.35557,7.203769 -6.68295,10.5 L 125.5,103.5 125.23499,262.75 124.96998,422 221.5,422 l 96.53002,0 -0.26501,-159.25 z M 789.5,146.5 c 0,-1.05682 -17.81148,-1.97819 -20.23837,-1.0469 -0.76361,0.29302 -1.09883,1.0013 -0.74492,1.57394 C 769.35667,148.38611 789.5,147.88018 789.5,146.5 z m 20.92707,-11.06993 c 0.86346,-0.86346 1.8141,-2.55096 2.11253,-3.75 0.29843,-1.19904 0.4116,-18.52922 0.2515,-38.511509 -0.27746,-34.62944 -0.38204,-36.397893 -2.23223,-37.75 -2.86687,-2.095085 -66.25245,-2.094326 -69.11774,8.28e-4 C 739.57757,56.782056 739.5,58.38376 739.5,95.5 c 0,37.11624 0.0776,38.71794 1.94113,40.08061 1.58286,1.15742 7.98335,1.41939 34.67857,1.41939 28.4147,0 32.94474,-0.2073 34.30737,-1.56993 z m -36.83818,-26.5068 C 771.02791,105.87972 771,105.66495 771,89 c 0,-16.664952 0.0279,-16.879715 2.58889,-19.923275 L 776.17779,66 791,66 l 14.82221,0 2.5889,3.076725 C 810.97209,72.120285 811,72.335048 811,89 c 0,16.66495 -0.0279,16.87972 -2.58889,19.92327 L 805.82221,112 791,112 l -14.82221,0 -2.5889,-3.07673 z M 802.5,89 l 0,-14.5 -11.5,0 -11.5,0 -0.28041,13.449549 c -0.15423,7.397251 -0.0502,14.049571 0.23125,14.782931 0.39371,1.02599 3.10941,1.26815 11.78041,1.05045 L 802.5,103.5 802.5,89 z"
       id="path3009"
       style="fill:#629da9" />
    <path
       d="M 0.93043347,428.41618 C -0.02329871,427.267 -0.0956731,426.37511 0.66670553,425.16618 1.6212437,423.65253 6.9713684,423.45423 59.108717,423 L 116.5,422.5 117,263 c 0.4649,-148.30263 0.6217,-159.80393 2.23361,-163.829271 3.33974,-8.340196 8.15464,-16.345148 11.4803,-19.08644 l 3.35533,-2.765746 -4.43965,-4.092329 C 121.76397,65.975944 121.99943,66 58.900286,66 28.245095,66 2.4517706,65.726855 1.5817875,65.393011 0.71180436,65.059167 0,63.695708 0,62.363102 l 0,-2.42292 60.25,0.279909 60.25,0.279909 5.0451,2.663013 c 2.7748,1.464658 7.34092,4.727158 10.14693,7.25 L 140.79386,75 l 79.23705,0 c 56.47821,0 80.33131,0.327847 83.04681,1.14143 7.66543,2.296621 14.21046,9.813555 18.78332,21.572555 L 324.5,104.5 325,264 l 0.5,159.5 5,0 5,0 0.5,-170 0.5,-170 2.3992,-6 c 6.65778,-16.649979 19.36838,-28.076677 34.90002,-31.374738 7.50483,-1.593611 277.89673,-1.593611 285.40156,0 15.43437,3.277407 28.43128,14.971374 34.87052,31.374738 2.2541,5.742101 2.37841,7.396952 2.89202,38.5 l 0.53668,32.5 32,0 c 31.33333,0 32,-0.0417 32,-2 0,-1.84381 -0.83333,-2.03905 -10.67075,-2.5 -9.6264,-0.45107 -10.93578,-0.74467 -13.37887,-3 C 732.12472,136.08364 732,135.0425 732,95.5 732,55.955823 732.12468,54.915221 737.45169,50 l 2.70944,-2.5 35.83887,0 35.83887,0 2.70944,2.5 C 819.87532,54.915221 820,55.955823 820,95.5 c 0,39.48648 -0.13133,40.59175 -5.40076,45.45216 -2.18779,2.01797 -4.02552,2.54916 -10.37888,3 -6.87108,0.48757 -7.72036,0.76785 -7.72036,2.54784 0,1.9548 0.66667,2 29.5,2 l 29.5,0 0.64249,-35 c 0.73294,-39.927555 2.0253,-51.214113 7.13137,-62.280461 C 866.73913,43.709289 864.96761,44 907.26796,44 l 37.82295,0 2.31257,2.31257 c 3.08936,3.089359 6.22705,11.760557 8.31667,22.98362 1.56196,8.389049 1.76085,24.474264 2.24675,181.70381 l 0.5331,172.5 26.5,0 26.5,0 0.5559,-153 c 0.6043,-166.3109 0.2304,-155.53928 5.9917,-172.64128 5.6018,-16.628581 14.7676,-28.522915 26.9524,-34.975647 l 4.5,-2.383073 75.25,-0.274437 75.25,-0.274436 0,2.417448 c 0,1.329596 -0.7118,2.690592 -1.5818,3.024436 C 1197.5482,65.726855 1165.0049,66 1126.0997,66 c -83.1587,0 -77.887,-0.593034 -88.255,9.928137 -7.5536,7.665271 -11.7,15.091435 -15.2327,27.281983 -4.6659,16.10108 -4.7247,18.41502 -4.4093,173.28988 l 0.2973,146 90.5,0.5133 c 49.775,0.28231 90.6125,0.61981 90.75,0.75 0.9548,0.90398 -0.046,5.1365 -1.3318,5.62971 C 1197.5482,429.72686 928.05333,430 599.54066,430 55.781525,430 2.1270725,429.85804 0.93043347,428.41618 z M 690.75295,256.66856 C 691.02814,76.262456 691.25839,84.363637 685.53469,73.068458 682.62768,67.331742 674.13418,58.619263 668.79158,55.893673 658.91201,50.85349 663.47142,51 516.5,51 369.52858,51 374.08799,50.85349 364.20842,55.893673 c -9.72821,4.962962 -18.90366,17.953387 -21.18771,29.99715 -1.14498,6.037415 -1.48872,335.307837 -0.35123,336.445317 0.36821,0.36821 78.78071,0.55571 174.25,0.41667 L 690.5,422.5 690.75295,256.66856 z m 217.00133,52.53797 c 0.27315,-121.70515 0.37641,-118.86205 -4.81953,-132.70653 -1.69969,-4.52879 -3.87404,-7.62514 -8.86763,-12.62778 -5.74396,-5.75437 -7.33737,-6.78267 -12.09145,-7.80312 -4.02548,-0.86406 -29.0467,-1.09506 -94.47567,-0.87222 L 698.5,155.5 698.24288,288 c -0.14142,72.875 -0.0422,133.06458 0.22039,133.75463 0.3796,0.99736 21.86101,1.20242 104.75712,1 L 907.5,422.5 907.75428,309.20653 z M 951.5,252.5 c 0,-177.318097 -0.005,-177.562987 -4.17142,-192.5 -0.84371,-3.025 -2.17317,-6.5125 -2.95435,-7.75 L 942.95389,50 907,50 l -35.95389,0 -1.4448,2.25 c -0.79464,1.2375 -2.13348,4.725 -2.97522,7.75 -3.34633,12.026 -4.11166,22.245504 -4.11891,55 l -0.007,32.5 11,0.53411 c 11.98224,0.58179 16.6582,2.15204 23.67409,7.95005 5.42613,4.48421 11.42868,14.11295 14.56166,23.35845 L 914.5,187.5 914.75782,304 c 0.1418,64.075 0.46918,117.07292 0.72751,117.77317 0.36146,0.97982 4.56447,1.21022 18.24217,1 L 951.5,422.5 l 0,-170 z M 317.76501,262.75 317.5,103.5 315.09499,97.527727 c -1.32738,-3.296231 -4.32186,-8.001046 -6.68295,-10.5 L 304.1341,82.5 l -82.6341,0 -82.6341,0 -4.27794,4.527727 c -2.36109,2.498954 -5.35557,7.203769 -6.68295,10.5 L 125.5,103.5 125.23499,262.75 124.96998,422 221.5,422 l 96.53002,0 -0.26501,-159.25 z M 790.5,146.5 c 0,-1.8604 -0.76183,-2.01993 -10.9145,-2.2855 -11.05896,-0.28928 -13.36095,0.32233 -12.23703,3.25121 0.5219,1.36006 2.30481,1.55769 11.88278,1.31722 C 789.73902,148.51911 790.5,148.36494 790.5,146.5 z m 20.63922,-10.41165 2.36078,-1.91164 0,-38.67671 0,-38.676706 -2.36078,-1.911647 C 808.92211,53.116346 806.78348,53 776,53 c -30.78348,0 -32.92211,0.116346 -35.13922,1.911647 L 738.5,56.823294 738.5,95.5 l 0,38.67671 2.36078,1.91164 C 743.07789,137.88365 745.21652,138 776,138 c 30.78348,0 32.92211,-0.11635 35.13922,-1.91165 z M 774.58889,107.92327 C 772.04206,104.89653 772,104.58913 772,89 c 0,-15.589129 0.0421,-15.89653 2.58889,-18.923275 L 777.17779,67 791,67 l 13.82221,0 2.5889,3.076725 C 809.95794,73.10347 810,73.410871 810,89 c 0,15.58913 -0.0421,15.89653 -2.58889,18.92327 L 804.82221,111 791,111 l -13.82221,0 -2.5889,-3.07673 z M 803.5,89 l 0,-15.5 -12.5,0 -12.5,0 -0.2787,14.454015 c -0.15329,7.949708 -0.0496,15.051125 0.23049,15.780935 0.39317,1.0246 3.3046,1.26291 12.7787,1.04599 L 803.5,104.5 803.5,89 z"
       id="path3007"
       style="fill:#299b9f" />
    <path
       d="M 0.93043347,428.41618 C -0.02329871,427.267 -0.0956731,426.37511 0.66670553,425.16618 1.6212437,423.65253 6.9713684,423.45423 59.108717,423 L 116.5,422.5 117,263 c 0.4649,-148.30263 0.6217,-159.80393 2.23361,-163.829271 3.33974,-8.340196 8.15464,-16.345148 11.4803,-19.08644 l 3.35533,-2.765746 -4.43965,-4.092329 C 121.76397,65.975944 121.99943,66 58.900286,66 28.245095,66 2.4517706,65.726855 1.5817875,65.393011 0.71180436,65.059167 0,63.695708 0,62.363102 l 0,-2.42292 60.25,0.279909 60.25,0.279909 5.0451,2.663013 c 2.7748,1.464658 7.34092,4.727158 10.14693,7.25 L 140.79386,75 l 79.23705,0 c 56.47821,0 80.33131,0.327847 83.04681,1.14143 7.66543,2.296621 14.21046,9.813555 18.78332,21.572555 L 324.5,104.5 325,264 l 0.5,159.5 5,0 5,0 0.5,-170 0.5,-170 2.3992,-6 c 6.65778,-16.649979 19.36838,-28.076677 34.90002,-31.374738 7.50483,-1.593611 277.89673,-1.593611 285.40156,0 15.43437,3.277407 28.43128,14.971374 34.87052,31.374738 2.2541,5.742101 2.37841,7.396952 2.89202,38.5 l 0.53668,32.5 32,0 c 31.33333,0 32,-0.0417 32,-2 0,-1.84381 -0.83333,-2.03905 -10.67075,-2.5 -9.6264,-0.45107 -10.93578,-0.74467 -13.37887,-3 C 732.12472,136.08364 732,135.0425 732,95.5 732,55.955823 732.12468,54.915221 737.45169,50 l 2.70944,-2.5 35.83887,0 35.83887,0 2.70944,2.5 C 819.87532,54.915221 820,55.955823 820,95.5 c 0,39.48648 -0.13133,40.59175 -5.40076,45.45216 -2.18779,2.01797 -4.02552,2.54916 -10.37888,3 -6.87108,0.48757 -7.72036,0.76785 -7.72036,2.54784 0,1.9548 0.66667,2 29.5,2 l 29.5,0 0.64249,-35 c 0.73294,-39.927555 2.0253,-51.214113 7.13137,-62.280461 C 866.73913,43.709289 864.96761,44 907.26796,44 l 37.82295,0 2.31257,2.31257 c 3.08936,3.089359 6.22705,11.760557 8.31667,22.98362 1.56196,8.389049 1.76085,24.474264 2.24675,181.70381 l 0.5331,172.5 26.5,0 26.5,0 0.5559,-153 c 0.6043,-166.3109 0.2304,-155.53928 5.9917,-172.64128 5.6018,-16.628581 14.7676,-28.522915 26.9524,-34.975647 l 4.5,-2.383073 75.25,-0.274437 75.25,-0.274436 0,2.417448 c 0,1.329596 -0.7118,2.690592 -1.5818,3.024436 C 1197.5482,65.726855 1165.0049,66 1126.0997,66 c -83.1587,0 -77.887,-0.593034 -88.255,9.928137 -7.5536,7.665271 -11.7,15.091435 -15.2327,27.281983 -4.6659,16.10108 -4.7247,18.41502 -4.4093,173.28988 l 0.2973,146 90.5,0.5133 c 49.775,0.28231 90.6125,0.61981 90.75,0.75 0.9548,0.90398 -0.046,5.1365 -1.3318,5.62971 C 1197.5482,429.72686 928.05333,430 599.54066,430 55.781525,430 2.1270725,429.85804 0.93043347,428.41618 z M 318.76787,263.25 318.5,103.5 l -3.30978,-7 C 311.652,89.01685 308.14764,84.682213 303.79966,82.410724 301.54121,81.230857 288.07335,81 221.5,81 154.92665,81 141.45879,81.230857 139.20034,82.410724 134.85236,84.682213 131.348,89.01685 127.80978,96.5 l -3.30978,7 -0.26787,159.75 -0.26788,159.75 97.53575,0 97.53575,0 -0.26788,-159.75 z m 371.98508,-6.58144 C 691.02814,76.262456 691.25839,84.363637 685.53469,73.068458 682.62768,67.331742 674.13418,58.619263 668.79158,55.893673 658.91201,50.85349 663.47142,51 516.5,51 369.52858,51 374.08799,50.85349 364.20842,55.893673 c -9.72821,4.962962 -18.90366,17.953387 -21.18771,29.99715 -1.14498,6.037415 -1.48872,335.307837 -0.35123,336.445317 0.36821,0.36821 78.78071,0.55571 174.25,0.41667 L 690.5,422.5 690.75295,256.66856 z m 217.00133,52.53797 c 0.27315,-121.70515 0.37641,-118.86205 -4.81953,-132.70653 -1.69969,-4.52879 -3.87404,-7.62514 -8.86763,-12.62778 -5.74396,-5.75437 -7.33737,-6.78267 -12.09145,-7.80312 -4.02548,-0.86406 -29.0467,-1.09506 -94.47567,-0.87222 L 698.5,155.5 698.24288,288 c -0.14142,72.875 -0.0422,133.06458 0.22039,133.75463 0.3796,0.99736 21.86101,1.20242 104.75712,1 L 907.5,422.5 907.75428,309.20653 z M 951.70324,249.75 C 951.38097,95.17763 951.16792,75.637541 949.72709,68.5 c -2.01689,-9.991206 -3.63752,-15.634866 -4.9535,-17.25 -1.47774,-1.813667 -74.08132,-1.813667 -75.52082,0 -1.5267,1.923526 -3.27089,7.965891 -4.91229,17.017509 -1.05458,5.815615 -1.6495,18.693406 -2.02642,43.865011 l -0.53357,35.63252 10.3723,0.38395 c 8.98267,0.33251 11.17445,0.77612 16.35975,3.31114 10.7192,5.24047 18.34539,15.25394 23.63976,31.03987 l 2.3477,7 0.27402,116.75 0.27402,116.75 18.50821,0 18.50821,0 -0.36122,-173.25 z M 790.5,146.5 c 0,-1.8604 -0.76183,-2.01993 -10.9145,-2.2855 -11.05896,-0.28928 -13.36095,0.32233 -12.23703,3.25121 0.5219,1.36006 2.30481,1.55769 11.88278,1.31722 C 789.73902,148.51911 790.5,148.36494 790.5,146.5 z m 20.63922,-10.41165 2.36078,-1.91164 0,-38.67671 0,-38.676706 -2.36078,-1.911647 C 808.92211,53.116346 806.78348,53 776,53 c -30.78348,0 -32.92211,0.116346 -35.13922,1.911647 L 738.5,56.823294 738.5,95.5 l 0,38.67671 2.36078,1.91164 C 743.07789,137.88365 745.21652,138 776,138 c 30.78348,0 32.92211,-0.11635 35.13922,-1.91165 z M 774.58889,107.92327 C 772.04206,104.89653 772,104.58913 772,89 c 0,-15.589129 0.0421,-15.89653 2.58889,-18.923275 L 777.17779,67 791,67 l 13.82221,0 2.5889,3.076725 C 809.95794,73.10347 810,73.410871 810,89 c 0,15.58913 -0.0421,15.89653 -2.58889,18.92327 L 804.82221,111 791,111 l -13.82221,0 -2.5889,-3.07673 z M 803.5,89 l 0,-15.5 -12.5,0 -12.5,0 -0.2787,14.454015 c -0.15329,7.949708 -0.0496,15.051125 0.23049,15.780935 0.39317,1.0246 3.3046,1.26291 12.7787,1.04599 L 803.5,104.5 803.5,89 z"
       id="path3005"
       style="fill:#a57420" />
    <path
       d="M 1.0105691,428.51273 C 0.33169285,427.69474 0.03607563,426.34837 0.35364191,425.52081 0.85695128,424.2092 8.4093684,423.98303 59.215518,423.75807 L 117.5,423.5 118,264 l 0.5,-159.5 2.25466,-5.920093 C 123.8731,90.391778 127.29608,84.825238 131.46178,81.167704 133.4078,79.459073 135,77.68563 135,77.226718 c 0,-1.505122 -6.40792,-6.962872 -11,-9.368919 L 119.5,65.5 59.75,65.219866 0,64.939732 0,62.439957 0,59.940182 60.25,60.220091 120.5,60.5 l 5.0451,2.663013 c 2.7748,1.464658 7.34092,4.727158 10.14693,7.25 L 140.79386,75 l 79.23705,0 c 56.47821,0 80.33131,0.327847 83.04681,1.14143 7.66543,2.296621 14.21046,9.813555 18.78332,21.572555 L 324.5,104.5 325,264 l 0.5,159.5 5,0 5,0 0.5,-170 0.5,-170 2.3992,-6 c 6.65778,-16.649979 19.36838,-28.076677 34.90002,-31.374738 7.50483,-1.593611 277.89673,-1.593611 285.40156,0 15.43437,3.277407 28.43128,14.971374 34.87052,31.374738 2.2541,5.742101 2.37841,7.396952 2.89202,38.5 l 0.53668,32.5 32,0 c 31.33333,0 32,-0.0417 32,-2 0,-1.84381 -0.83333,-2.03905 -10.67075,-2.5 -9.6264,-0.45107 -10.93578,-0.74467 -13.37887,-3 C 732.12472,136.08364 732,135.0425 732,95.5 732,55.955823 732.12468,54.915221 737.45169,50 l 2.70944,-2.5 35.83887,0 35.83887,0 2.70944,2.5 C 819.87532,54.915221 820,55.955823 820,95.5 c 0,39.48648 -0.13133,40.59175 -5.40076,45.45216 -2.18779,2.01797 -4.02552,2.54916 -10.37888,3 -6.87108,0.48757 -7.72036,0.76785 -7.72036,2.54784 0,1.9548 0.66667,2 29.5,2 l 29.5,0 0.64249,-35 c 0.73294,-39.927555 2.0253,-51.214113 7.13137,-62.280461 C 866.73913,43.709289 864.96761,44 907.26796,44 l 37.82295,0 2.31257,2.31257 c 3.08936,3.089359 6.22705,11.760557 8.31667,22.98362 1.56196,8.389049 1.76085,24.474264 2.24675,181.70381 l 0.5331,172.5 26.5,0 26.5,0 0.5559,-153 c 0.6043,-166.3109 0.2304,-155.53928 5.9917,-172.64128 5.6018,-16.628581 14.7676,-28.522915 26.9524,-34.975647 l 4.5,-2.383073 75.25,-0.274437 75.25,-0.274436 0,2.49985 0,2.49985 -74.75,0.274586 -74.75,0.274587 -5.1315,2.706804 c -10.0554,5.304099 -19.8302,19.658571 -24.2517,35.614406 -4.1145,14.84762 -4.2236,19.66065 -3.9141,172.67879 l 0.2973,147 91.25,0.25526 91.25,0.25526 0,2.38775 c 0,1.31326 -0.7118,2.6609 -1.5818,2.99474 C 1197.5482,429.72686 928.05333,430 599.54066,430 72.10412,430 2.1005243,429.82605 1.0105691,428.51273 z M 908.75424,309.20636 c 0.27859,-125.23921 0.42109,-121.82369 -5.62116,-134.73567 -3.50592,-7.49197 -8.85847,-13.63644 -15.04944,-17.27603 L 883.5,154.5 l -93,0 -93,0 -0.25711,133.5 c -0.14141,73.425 -0.0422,134.06457 0.22038,134.75459 0.37959,0.99739 22.06094,1.2024 105.75711,1 L 908.5,423.5 908.75424,309.20636 z M 318.76787,263.25 318.5,103.5 l -3.30978,-7 C 311.652,89.01685 308.14764,84.682213 303.79966,82.410724 301.54121,81.230857 288.07335,81 221.5,81 154.92665,81 141.45879,81.230857 139.20034,82.410724 134.85236,84.682213 131.348,89.01685 127.80978,96.5 l -3.30978,7 -0.26787,159.75 -0.26788,159.75 97.53575,0 97.53575,0 -0.26788,-159.75 z m 371.98508,-6.58144 C 691.02814,76.262456 691.25839,84.363637 685.53469,73.068458 682.62768,67.331742 674.13418,58.619263 668.79158,55.893673 658.91201,50.85349 663.47142,51 516.5,51 369.52858,51 374.08799,50.85349 364.20842,55.893673 c -9.72821,4.962962 -18.90366,17.953387 -21.18771,29.99715 -1.14498,6.037415 -1.48872,335.307837 -0.35123,336.445317 0.36821,0.36821 78.78071,0.55571 174.25,0.41667 L 690.5,422.5 690.75295,256.66856 z M 951.70324,249.75 C 951.38097,95.17763 951.16792,75.637541 949.72709,68.5 c -2.01689,-9.991206 -3.63752,-15.634866 -4.9535,-17.25 -1.47774,-1.813667 -74.08132,-1.813667 -75.52082,0 -1.5267,1.923526 -3.27089,7.965891 -4.91229,17.017509 -1.05458,5.815615 -1.6495,18.693406 -2.02642,43.865011 l -0.53357,35.63252 10.3723,0.38395 c 8.98267,0.33251 11.17445,0.77612 16.35975,3.31114 10.7192,5.24047 18.34539,15.25394 23.63976,31.03987 l 2.3477,7 0.27402,116.75 0.27402,116.75 18.50821,0 18.50821,0 -0.36122,-173.25 z M 790.5,146.5 c 0,-1.8604 -0.76183,-2.01993 -10.9145,-2.2855 -11.05896,-0.28928 -13.36095,0.32233 -12.23703,3.25121 0.5219,1.36006 2.30481,1.55769 11.88278,1.31722 C 789.73902,148.51911 790.5,148.36494 790.5,146.5 z m 20.63922,-10.41165 2.36078,-1.91164 0,-38.67671 0,-38.676706 -2.36078,-1.911647 C 808.92211,53.116346 806.78348,53 776,53 c -30.78348,0 -32.92211,0.116346 -35.13922,1.911647 L 738.5,56.823294 738.5,95.5 l 0,38.67671 2.36078,1.91164 C 743.07789,137.88365 745.21652,138 776,138 c 30.78348,0 32.92211,-0.11635 35.13922,-1.91165 z M 774.58889,107.92327 C 772.04206,104.89653 772,104.58913 772,89 c 0,-15.589129 0.0421,-15.89653 2.58889,-18.923275 L 777.17779,67 791,67 l 13.82221,0 2.5889,3.076725 C 809.95794,73.10347 810,73.410871 810,89 c 0,15.58913 -0.0421,15.89653 -2.58889,18.92327 L 804.82221,111 791,111 l -13.82221,0 -2.5889,-3.07673 z M 803.5,89 l 0,-15.5 -12.5,0 -12.5,0 -0.2787,14.454015 c -0.15329,7.949708 -0.0496,15.051125 0.23049,15.780935 0.39317,1.0246 3.3046,1.26291 12.7787,1.04599 L 803.5,104.5 803.5,89 z"
       id="path3003"
       style="fill:#489348" />
    <path
       d="M 1.0105691,428.51273 C 0.33169285,427.69474 0.03607563,426.34837 0.35364191,425.52081 0.85695128,424.2092 8.4093684,423.98303 59.215518,423.75807 L 117.5,423.5 118,264 l 0.5,-159.5 2.25466,-5.920093 C 123.8731,90.391778 127.29608,84.825238 131.46178,81.167704 133.4078,79.459073 135,77.68563 135,77.226718 c 0,-1.505122 -6.40792,-6.962872 -11,-9.368919 L 119.5,65.5 59.75,65.219866 0,64.939732 0,62.439957 0,59.940182 60.25,60.220091 120.5,60.5 l 5.0451,2.663013 c 2.7748,1.464658 7.34092,4.727158 10.14693,7.25 L 140.79386,75 l 79.23705,0 c 56.47821,0 80.33131,0.327847 83.04681,1.14143 7.66543,2.296621 14.21046,9.813555 18.78332,21.572555 L 324.5,104.5 325,264 l 0.5,159.5 5,0 5,0 0.5,-170 0.5,-170 2.3992,-6 c 6.65778,-16.649979 19.36838,-28.076677 34.90002,-31.374738 7.50483,-1.593611 277.89673,-1.593611 285.40156,0 15.43437,3.277407 28.43128,14.971374 34.87052,31.374738 2.2541,5.742101 2.37841,7.396952 2.89202,38.5 l 0.53668,32.5 32,0 c 31.33333,0 32,-0.0417 32,-2 0,-1.84381 -0.83333,-2.03905 -10.67075,-2.5 -9.6264,-0.45107 -10.93578,-0.74467 -13.37887,-3 C 732.12472,136.08364 732,135.0425 732,95.5 732,55.955823 732.12468,54.915221 737.45169,50 l 2.70944,-2.5 35.83887,0 35.83887,0 2.70944,2.5 C 819.87532,54.915221 820,55.955823 820,95.5 c 0,39.48648 -0.13133,40.59175 -5.40076,45.45216 -2.18779,2.01797 -4.02552,2.54916 -10.37888,3 -6.87108,0.48757 -7.72036,0.76785 -7.72036,2.54784 0,1.9548 0.66667,2 29.5,2 l 29.5,0 0.64249,-35 c 0.73294,-39.927555 2.0253,-51.214113 7.13137,-62.280461 C 866.73913,43.709289 864.96761,44 907.26796,44 l 37.82295,0 2.31257,2.31257 c 3.08936,3.089359 6.22705,11.760557 8.31667,22.98362 1.56196,8.389049 1.76085,24.474264 2.24675,181.70381 l 0.5331,172.5 26.5,0 26.5,0 0.5559,-153 c 0.6043,-166.3109 0.2304,-155.53928 5.9917,-172.64128 5.6018,-16.628581 14.7676,-28.522915 26.9524,-34.975647 l 4.5,-2.383073 75.25,-0.274437 75.25,-0.274436 0,2.49985 0,2.49985 -74.75,0.274586 -74.75,0.274587 -5.1315,2.706804 c -10.0554,5.304099 -19.8302,19.658571 -24.2517,35.614406 -4.1145,14.84762 -4.2236,19.66065 -3.9141,172.67879 l 0.2973,147 91.25,0.25526 91.25,0.25526 0,2.38775 c 0,1.31326 -0.7118,2.6609 -1.5818,2.99474 C 1197.5482,429.72686 928.05333,430 599.54066,430 72.10412,430 2.1005243,429.82605 1.0105691,428.51273 z M 691.75294,256.66848 C 692.02962,74.174091 692.28504,82.806365 686.28209,71.776965 682.489,64.807802 672.413,55.709855 665.31703,52.846928 L 659.5,50.5 l -143,0 -143,0 -5.81703,2.346928 c -12.1126,4.886926 -23.18971,18.708495 -25.67769,32.039562 -1.13073,6.058673 -1.45942,337.32603 -0.33582,338.44964 0.3682,0.3682 79.2307,0.5557 175.25,0.41666 L 691.5,423.5 691.75294,256.66848 z m 217.0013,52.53788 c 0.27859,-125.23921 0.42109,-121.82369 -5.62116,-134.73567 -3.50592,-7.49197 -8.85847,-13.63644 -15.04944,-17.27603 L 883.5,154.5 l -93,0 -93,0 -0.25711,133.5 c -0.14141,73.425 -0.0422,134.06457 0.22038,134.75459 0.37959,0.99739 22.06094,1.2024 105.75711,1 L 908.5,423.5 908.75424,309.20636 z M 318.76787,263.25 318.5,103.5 l -3.30978,-7 C 311.652,89.01685 308.14764,84.682213 303.79966,82.410724 301.54121,81.230857 288.07335,81 221.5,81 154.92665,81 141.45879,81.230857 139.20034,82.410724 134.85236,84.682213 131.348,89.01685 127.80978,96.5 l -3.30978,7 -0.26787,159.75 -0.26788,159.75 97.53575,0 97.53575,0 -0.26788,-159.75 z m 632.93537,-13.5 C 951.38097,95.17763 951.16792,75.637541 949.72709,68.5 c -2.01689,-9.991206 -3.63752,-15.634866 -4.9535,-17.25 -1.47774,-1.813667 -74.08132,-1.813667 -75.52082,0 -1.5267,1.923526 -3.27089,7.965891 -4.91229,17.017509 -1.05458,5.815615 -1.6495,18.693406 -2.02642,43.865011 l -0.53357,35.63252 10.3723,0.38395 c 8.98267,0.33251 11.17445,0.77612 16.35975,3.31114 10.7192,5.24047 18.34539,15.25394 23.63976,31.03987 l 2.3477,7 0.27402,116.75 0.27402,116.75 18.50821,0 18.50821,0 -0.36122,-173.25 z M 790.5,146.5 c 0,-1.8604 -0.76183,-2.01993 -10.9145,-2.2855 -11.05896,-0.28928 -13.36095,0.32233 -12.23703,3.25121 0.5219,1.36006 2.30481,1.55769 11.88278,1.31722 C 789.73902,148.51911 790.5,148.36494 790.5,146.5 z m 20.63922,-10.41165 2.36078,-1.91164 0,-38.67671 0,-38.676706 -2.36078,-1.911647 C 808.92211,53.116346 806.78348,53 776,53 c -30.78348,0 -32.92211,0.116346 -35.13922,1.911647 L 738.5,56.823294 738.5,95.5 l 0,38.67671 2.36078,1.91164 C 743.07789,137.88365 745.21652,138 776,138 c 30.78348,0 32.92211,-0.11635 35.13922,-1.91165 z M 774.58889,107.92327 C 772.04206,104.89653 772,104.58913 772,89 c 0,-15.589129 0.0421,-15.89653 2.58889,-18.923275 L 777.17779,67 791,67 l 13.82221,0 2.5889,3.076725 C 809.95794,73.10347 810,73.410871 810,89 c 0,15.58913 -0.0421,15.89653 -2.58889,18.92327 L 804.82221,111 791,111 l -13.82221,0 -2.5889,-3.07673 z M 803.5,89 l 0,-15.5 -12.5,0 -12.5,0 -0.2787,14.454015 c -0.15329,7.949708 -0.0496,15.051125 0.23049,15.780935 0.39317,1.0246 3.3046,1.26291 12.7787,1.04599 L 803.5,104.5 803.5,89 z"
       id="path3001"
       style="fill:#5e6061" />
    <path
       d="M 0.33583265,427.43278 C 0.00506388,426.57081 0.15049153,425.44951 0.65900521,424.94099 1.1977672,424.40223 25.768606,423.90868 59.541788,423.75821 L 117.5,423.5 118,264 l 0.5,-159.5 2.25466,-5.920093 C 123.8731,90.391778 127.29608,84.825238 131.46178,81.167704 133.4078,79.459073 135,77.68563 135,77.226718 c 0,-1.505122 -6.40792,-6.962872 -11,-9.368919 L 119.5,65.5 59.75,65.219866 0,64.939732 l 0,-2.5 0,-2.5 59.75,0.280134 59.75,0.280134 6.29642,3.414067 c 3.46303,1.877736 8.04371,5.161354 10.17928,7.296927 l 3.88286,3.882861 79.24337,-0.06995 c 88.0315,-0.07771 85.24344,-0.275272 92.25834,6.537506 4.30462,4.180598 7.85014,10.049645 10.88507,18.018496 L 324.5,105.5 l 0.26793,159.25 0.26792,159.25 5.46521,0 5.4652,0 0.26687,-169.75 L 336.5,84.5 l 2.7165,-6.780068 c 6.77901,-16.919577 19.45266,-28.17311 35.58272,-31.595554 7.50239,-1.591842 275.89917,-1.591842 283.40156,0 15.93512,3.381084 28.9532,14.942565 35.54402,31.567001 l 2.69931,6.808621 0.35148,32.25 0.35147,32.25 32.42647,0 32.42647,0 0,-2.5 c 0,-2.48679 -0.049,-2.5 -9.2656,-2.5 -11.2786,0 -15.0993,-1.65843 -18.45948,-8.01262 C 732.02953,131.74127 732,131.21575 732,95.5 732,43.360611 728.69829,47 776,47 c 37.11194,0 37.53039,0.08036 41.72508,8.01262 C 819.97047,59.258729 820,59.784249 820,95.5 c 0,35.71575 -0.0295,36.24127 -2.27492,40.48738 C 814.69019,141.72643 810.30358,144 802.2656,144 796.24896,144 796,144.09934 796,146.5 l 0,2.5 30,0 30,0 0,-28.39405 C 856,74.419217 859.38624,52.560945 867.53431,46.151675 870.22187,44.037635 870.91588,44 907.21178,44 l 36.94207,0 2.76228,2.762289 c 3.51427,3.514262 6.62338,11.823942 8.80535,23.533901 1.56955,8.423321 1.74141,23.810721 2.02659,181.45381 l 0.3116,172.25 26.97017,0 26.97016,0 0.02,-148.25 c 0.012,-92.89145 0.3914,-150.86389 1.015,-155.25 2.4515,-17.24231 8.6673,-33.671628 16.7785,-44.347698 4.494,-5.915054 8.2001,-8.981971 15.6867,-12.981303 l 5,-2.670999 74.75,-0.274587 74.75,-0.274586 0,2.5 0,2.5 -74.75,0.274586 -74.75,0.274587 -5.1315,2.706804 c -10.0554,5.304099 -19.8302,19.658571 -24.2517,35.614406 -4.1145,14.84762 -4.2236,19.66065 -3.9141,172.67879 l 0.2973,147 91.25,0.25526 91.25,0.25526 0,2.49474 0,2.49474 -599.53138,0 C 57.046006,429 0.88094696,428.85333 0.33583265,427.43278 z M 691.75294,256.66848 C 692.02962,74.174091 692.28504,82.806365 686.28209,71.776965 682.489,64.807802 672.413,55.709855 665.31703,52.846928 L 659.5,50.5 l -143,0 -143,0 -5.81703,2.346928 c -12.1126,4.886926 -23.18971,18.708495 -25.67769,32.039562 -1.13073,6.058673 -1.45942,337.32603 -0.33582,338.44964 0.3682,0.3682 79.2307,0.5557 175.25,0.41666 L 691.5,423.5 691.75294,256.66848 z m 217.0013,52.53788 c 0.27859,-125.23921 0.42109,-121.82369 -5.62116,-134.73567 -3.50592,-7.49197 -8.85847,-13.63644 -15.04944,-17.27603 L 883.5,154.5 l -93,0 -93,0 -0.25711,133.5 c -0.14141,73.425 -0.0422,134.06457 0.22038,134.75459 0.37959,0.99739 22.06094,1.2024 105.75711,1 L 908.5,423.5 908.75424,309.20636 z M 318.76787,263.25 318.5,103.5 l -3.30978,-7 C 311.652,89.01685 308.14764,84.682213 303.79966,82.410724 301.54121,81.230857 288.07335,81 221.5,81 154.92665,81 141.45879,81.230857 139.20034,82.410724 134.85236,84.682213 131.348,89.01685 127.80978,96.5 l -3.30978,7 -0.26787,159.75 -0.26788,159.75 97.53575,0 97.53575,0 -0.26788,-159.75 z m 632.93537,-13.5 C 951.38097,95.17763 951.16792,75.637541 949.72709,68.5 c -2.01689,-9.991206 -3.63752,-15.634866 -4.9535,-17.25 -1.47774,-1.813667 -74.08132,-1.813667 -75.52082,0 -1.5267,1.923526 -3.27089,7.965891 -4.91229,17.017509 -1.05458,5.815615 -1.6495,18.693406 -2.02642,43.865011 l -0.53357,35.63252 10.3723,0.38395 c 8.98267,0.33251 11.17445,0.77612 16.35975,3.31114 10.7192,5.24047 18.34539,15.25394 23.63976,31.03987 l 2.3477,7 0.27402,116.75 0.27402,116.75 18.50821,0 18.50821,0 -0.36122,-173.25 z M 791,146.5 l 0,-2.5 -12,0 -12,0 0,2.5 0,2.5 12,0 12,0 0,-2.5 z m 20.97456,-9.47456 c 1.08601,-1.08601 2.2293,-2.99851 2.54065,-4.25 0.31134,-1.25149 0.43529,-19.07808 0.27543,-39.61465 L 814.5,55.821581 812.13922,53.91079 C 809.91933,52.114042 807.76242,52 776,52 c -31.76807,0 -33.91894,0.113774 -36.13922,1.911647 L 737.5,55.823294 737.5,95.5 l 0,39.67671 2.36078,1.91164 c 2.22062,1.79815 4.37285,1.91165 36.25,1.91165 32.41037,0 33.97539,-0.0862 35.86378,-1.97456 z M 775.45455,107.54545 C 773.05187,105.14278 773,104.75084 773,89 773,73.249158 773.05187,72.857216 775.45455,70.454545 777.81061,68.098485 778.43434,68 791,68 c 12.56566,0 13.18939,0.09848 15.54545,2.454545 C 808.94813,72.857216 809,73.249158 809,89 c 0,15.75084 -0.0519,16.14278 -2.45455,18.54545 C 804.18939,109.90152 803.56566,110 791,110 c -12.56566,0 -13.18939,-0.0985 -15.54545,-2.45455 z M 804,89 l 0,-16 -13,0 -13,0 0,16 0,16 13,0 13,0 0,-16 z"
       id="path2999"
       style="fill:#1e7d82" />
    <path
       d="M 0.33583265,427.43278 C 0.00506388,426.57081 0.15049153,425.44951 0.65900521,424.94099 1.1977672,424.40223 25.768606,423.90868 59.541788,423.75821 L 117.5,423.5 118,264 l 0.5,-159.5 2.25466,-5.920093 C 123.8731,90.391778 127.29608,84.825238 131.46178,81.167704 133.4078,79.459073 135,77.68563 135,77.226718 c 0,-1.505122 -6.40792,-6.962872 -11,-9.368919 L 119.5,65.5 59.75,65.219866 0,64.939732 l 0,-2.5 0,-2.5 59.75,0.280134 59.75,0.280134 6.29642,3.414067 c 3.46303,1.877736 8.04371,5.161354 10.17928,7.296927 l 3.88286,3.882861 79.24337,-0.06995 c 88.0315,-0.07771 85.24344,-0.275272 92.25834,6.537506 4.30462,4.180598 7.85014,10.049645 10.88507,18.018496 L 324.5,105.5 l 0.26793,159.25 0.26792,159.25 5.46521,0 5.4652,0 0.26687,-169.75 L 336.5,84.5 l 2.7165,-6.780068 c 6.77901,-16.919577 19.45266,-28.17311 35.58272,-31.595554 7.50239,-1.591842 275.89917,-1.591842 283.40156,0 15.93512,3.381084 28.9532,14.942565 35.54402,31.567001 l 2.69931,6.808621 0.35148,32.25 0.35147,32.25 32.42647,0 32.42647,0 0,-2.5 c 0,-2.48679 -0.049,-2.5 -9.2656,-2.5 -11.2786,0 -15.0993,-1.65843 -18.45948,-8.01262 C 732.02953,131.74127 732,131.21575 732,95.5 732,43.360611 728.69829,47 776,47 c 37.11194,0 37.53039,0.08036 41.72508,8.01262 C 819.97047,59.258729 820,59.784249 820,95.5 c 0,35.71575 -0.0295,36.24127 -2.27492,40.48738 C 814.69019,141.72643 810.30358,144 802.2656,144 796.24896,144 796,144.09934 796,146.5 l 0,2.5 30,0 30,0 0,-28.39405 C 856,74.419217 859.38624,52.560945 867.53431,46.151675 870.22187,44.037635 870.91588,44 907.21178,44 l 36.94207,0 2.76228,2.762289 c 3.51427,3.514262 6.62338,11.823942 8.80535,23.533901 1.56955,8.423321 1.74141,23.810721 2.02659,181.45381 l 0.3116,172.25 26.97017,0 26.97016,0 0.02,-148.25 c 0.012,-92.89145 0.3914,-150.86389 1.015,-155.25 2.4515,-17.24231 8.6673,-33.671628 16.7785,-44.347698 4.494,-5.915054 8.2001,-8.981971 15.6867,-12.981303 l 5,-2.670999 74.75,-0.274587 74.75,-0.274586 0,2.5 0,2.5 -74.75,0.274586 -74.75,0.274587 -5.1315,2.706804 c -10.0554,5.304099 -19.8302,19.658571 -24.2517,35.614406 -4.1145,14.84762 -4.2236,19.66065 -3.9141,172.67879 l 0.2973,147 91.25,0.25526 91.25,0.25526 0,2.49474 0,2.49474 -599.53138,0 C 57.046006,429 0.88094696,428.85333 0.33583265,427.43278 z M 319.7538,267.5 c 0.16346,-100.47597 -0.10088,-157.91992 -0.74271,-161.39418 -2.07679,-11.241989 -8.74875,-21.729923 -15.72897,-24.725062 -4.77042,-2.046937 -158.79382,-2.046937 -163.56424,0 -6.94303,2.979181 -13.58447,13.369815 -15.71023,24.578892 -1.13393,5.97922 -1.4625,316.25217 -0.33608,317.37858 0.36936,0.36936 44.58186,0.55686 98.25,0.41667 L 319.5,423.5 l 0.2538,-156 z M 691.75294,256.66848 C 692.02962,74.174091 692.28504,82.806365 686.28209,71.776965 682.489,64.807802 672.413,55.709855 665.31703,52.846928 L 659.5,50.5 l -143,0 -143,0 -5.81703,2.346928 c -12.1126,4.886926 -23.18971,18.708495 -25.67769,32.039562 -1.13073,6.058673 -1.45942,337.32603 -0.33582,338.44964 0.3682,0.3682 79.2307,0.5557 175.25,0.41666 L 691.5,423.5 691.75294,256.66848 z m 217.0013,52.53788 c 0.27859,-125.23921 0.42109,-121.82369 -5.62116,-134.73567 -3.50592,-7.49197 -8.85847,-13.63644 -15.04944,-17.27603 L 883.5,154.5 l -93,0 -93,0 -0.25711,133.5 c -0.14141,73.425 -0.0422,134.06457 0.22038,134.75459 0.37959,0.99739 22.06094,1.2024 105.75711,1 L 908.5,423.5 908.75424,309.20636 z M 952.5,252.5 c 0,-178.373018 -0.004,-178.55828 -4.17142,-193.5 -0.84371,-3.025 -2.17317,-6.5125 -2.95435,-7.75 L 943.95389,49 907,49 l -36.95389,0 -1.4448,2.25 c -0.79464,1.2375 -2.13348,4.725 -2.97522,7.75 -3.3742,12.126159 -4.11596,22.20571 -4.12105,56 l -0.005,33.5 11,0.53411 c 11.98224,0.58179 16.6582,2.15204 23.67409,7.95005 5.42613,4.48421 11.42868,14.11295 14.56166,23.35845 L 913.5,188.5 913.75782,305 c 0.1418,64.075 0.46901,117.07247 0.72712,117.77215 0.36195,0.98118 4.76309,1.2099 19.24217,1 L 952.5,423.5 l 0,-171 z m -161.5,-106 0,-2.5 -12,0 -12,0 0,2.5 0,2.5 12,0 12,0 0,-2.5 z m 20.97456,-9.47456 c 1.08601,-1.08601 2.2293,-2.99851 2.54065,-4.25 0.31134,-1.25149 0.43529,-19.07808 0.27543,-39.61465 L 814.5,55.821581 812.13922,53.91079 C 809.91933,52.114042 807.76242,52 776,52 c -31.76807,0 -33.91894,0.113774 -36.13922,1.911647 L 737.5,55.823294 737.5,95.5 l 0,39.67671 2.36078,1.91164 c 2.22062,1.79815 4.37285,1.91165 36.25,1.91165 32.41037,0 33.97539,-0.0862 35.86378,-1.97456 z M 775.45455,107.54545 C 773.05187,105.14278 773,104.75084 773,89 773,73.249158 773.05187,72.857216 775.45455,70.454545 777.81061,68.098485 778.43434,68 791,68 c 12.56566,0 13.18939,0.09848 15.54545,2.454545 C 808.94813,72.857216 809,73.249158 809,89 c 0,15.75084 -0.0519,16.14278 -2.45455,18.54545 C 804.18939,109.90152 803.56566,110 791,110 c -12.56566,0 -13.18939,-0.0985 -15.54545,-2.45455 z M 804,89 l 0,-16 -13,0 -13,0 0,16 0,16 13,0 13,0 0,-16 z"
       id="path2997"
       style="fill:#294c50" />
    <path
       d="m 0.23989983,427.18278 c -0.27800572,-0.72447 -0.0894083,-1.73327 0.41910538,-2.24179 C 1.1977672,424.40223 25.768606,423.90868 59.541788,423.75821 L 117.5,423.5 118,264 l 0.5,-159.5 2.25466,-5.920093 C 123.8731,90.391778 127.29608,84.825238 131.46178,81.167704 133.4078,79.459073 135,77.68563 135,77.226718 c 0,-1.505122 -6.40792,-6.962872 -11,-9.368919 L 119.5,65.5 59.75,65.219866 0,64.939732 -8.5007963e-4,62.719866 -0.00170016,60.5 25.74915,60.748003 C 39.912117,60.884405 67.025,61.109405 86,61.248003 L 120.5,61.5 l 5.3375,2.811187 c 2.93563,1.546153 7.33775,4.811436 9.7825,7.256186 l 4.445,4.444998 81.2175,0.243815 c 77.73178,0.23335 81.38303,0.325989 85.07442,2.15849 7.39144,3.669313 14.29714,15.215255 16.71,27.938184 0.55237,2.91266 0.93308,68.43242 0.93308,160.58363 0,119.73829 0.27695,155.94046 1.2,156.86351 1.62152,1.62152 9.28404,1.52662 10.66059,-0.13202 0.79537,-0.95836 1.18036,-48.85658 1.37244,-170.75 L 337.5,83.5 l 2.3992,-6 C 346.46842,61.071482 358.37875,50.399719 373.79922,47.125262 377.5785,46.322751 418.50834,46 516.5,46 c 97.99166,0 138.9215,0.322751 142.70078,1.125262 15.3136,3.251763 27.50733,14.185459 33.87523,30.374738 2.2735,5.780004 2.37317,7.172919 2.71821,37.98935 0.22694,20.26877 0.74151,32.45124 1.40442,33.25 C 697.99952,149.70434 705.57501,150 729.5,150 c 27.29755,0 31.42155,-0.20055 32.56957,-1.58382 0.95117,-1.1461 1.02533,-2.04432 0.26832,-3.25 -0.83196,-1.32507 -3.2044,-1.76854 -11.58846,-2.16618 -8.67579,-0.41147 -10.9392,-0.8541 -12.78389,-2.5 C 733.19672,136.2451 733,134.46236 733,95.5 c 0,-38.964488 0.1967,-40.74653 4.96697,-45 2.15437,-1.920965 3.65734,-2 38.03303,-2 34.37569,0 35.87866,0.07903 38.03303,2 4.77027,4.25347 4.96697,6.035512 4.96697,45 0,38.89497 -0.20319,40.75311 -4.91582,44.95371 -1.6061,1.43159 -4.22091,2.09971 -9.78431,2.5 -8.28351,0.59601 -10.95901,2.34222 -8.36944,5.46247 1.14341,1.37772 5.04626,1.58382 29.99201,1.58382 20.97144,0 29.00002,-0.32246 29.87756,-1.2 0.87658,-0.87658 1.2,-8.79868 1.2,-29.39405 0,-43.489507 3.03818,-65.444129 10.02305,-72.429002 C 868.92295,45.07705 870.48103,45 907,45 c 35.89531,0 38.10441,0.104415 39.8852,1.885198 2.68525,2.68525 5.84404,11.719196 7.83619,22.410992 1.56934,8.422587 1.74137,23.797617 2.02677,181.13751 0.22207,122.42689 0.62643,172.31272 1.4043,173.25 1.50751,1.81644 51.83834,1.92555 53.64754,0.1163 0.9223,-0.92235 1.2046,-35.45552 1.2198,-149.25 0.012,-92.75875 0.3915,-150.66424 1.015,-155.05 2.4191,-17.01469 7.514,-30.909598 15.3712,-41.920457 4.7454,-6.650082 8.4007,-9.857955 15.594,-13.685258 l 4.5,-2.394285 43,-0.251403 c 23.65,-0.138272 57.5128,-0.363272 75.2506,-0.5 L 1200.0013,60.5 l -7e-4,2.225413 -6e-4,2.225414 -74.75,0.274586 -74.75,0.274587 -5.1315,2.706804 c -10.0554,5.304099 -19.8302,19.658571 -24.2517,35.614406 -4.1145,14.84762 -4.2236,19.66065 -3.9141,172.67879 l 0.2973,147 91.25,0.25526 91.25,0.25526 0,2.24474 0,2.24474 -599.62732,0 C 105.2739,428.5 0.65725085,428.27038 0.23989983,427.18278 z M 319.8,423.8 c 1.57761,-1.57761 1.75132,-308.61991 0.17929,-316.90918 -1.26989,-6.6961 -6.22086,-17.452172 -9.78907,-21.266919 C 308.7106,84.042047 305.7,81.91443 303.5,80.895863 c -3.78537,-1.752569 -8.18527,-1.851939 -82,-1.851939 -73.81473,0 -78.21463,0.09937 -82,1.851939 -2.2,1.018567 -5.2106,3.146184 -6.69022,4.728038 -3.56821,3.814747 -8.51918,14.570819 -9.78907,21.266919 -1.57203,8.28927 -1.39832,315.33157 0.17929,316.90918 1.74037,1.74037 194.85963,1.74037 196.6,0 z m 633.11011,-0.19169 c 0.86656,-1.04414 1.06464,-44.30932 0.79318,-173.25 C 953.31578,66.299174 953.50832,73.470122 948.51683,57.194895 945.52173,47.429087 948.07255,48 907.43426,48 c -21.70085,0 -36.29119,0.388245 -37.42662,0.995913 -2.51548,1.346244 -5.67031,10.145919 -7.6365,21.300277 -2.07752,11.785959 -3.264,75.92305 -1.44506,78.11475 0.80573,0.97083 4.44035,1.48678 12.35768,1.7542 10.15541,0.34302 11.72275,0.65732 16.57165,3.32316 6.8945,3.79046 12.56317,10.21923 16.78917,19.04039 6.5303,13.63105 6.31889,9.11083 6.33806,135.52131 0.0133,87.74161 0.2982,114.83084 1.21736,115.75 1.85193,1.85193 37.15916,1.67709 38.71011,-0.19169 z M 691.75294,256.66848 C 692.02962,74.174091 692.28504,82.806365 686.28209,71.776965 682.489,64.807802 672.413,55.709855 665.31703,52.846928 L 659.5,50.5 l -143,0 -143,0 -5.81703,2.346928 c -12.1126,4.886926 -23.18971,18.708495 -25.67769,32.039562 -1.13073,6.058673 -1.45942,337.32603 -0.33582,338.44964 0.3682,0.3682 79.2307,0.5557 175.25,0.41666 L 691.5,423.5 691.75294,256.66848 z m 217.0013,52.53788 c 0.27859,-125.23921 0.42109,-121.82369 -5.62116,-134.73567 -3.50592,-7.49197 -8.85847,-13.63644 -15.04944,-17.27603 L 883.5,154.5 l -93,0 -93,0 -0.25711,133.5 c -0.14141,73.425 -0.0422,134.06457 0.22038,134.75459 0.37959,0.99739 22.06094,1.2024 105.75711,1 L 908.5,423.5 908.75424,309.20636 z M 791.06957,148.41618 c 0.95388,-1.14936 1.02615,-2.04088 0.26345,-3.25 C 790.4535,143.77183 788.44138,143.5 779,143.5 c -9.44138,0 -11.4535,0.27183 -12.33302,1.66618 -0.7627,1.20912 -0.69043,2.10064 0.26345,3.25 C 767.98066,149.68162 770.40687,150 779,150 c 8.59313,0 11.01934,-0.31838 12.06957,-1.58382 z m 21.89064,-12.09272 c 2.07109,-2.63297 2.10077,-3.31813 1.82258,-42.081335 -0.27039,-37.677457 -0.36788,-39.466973 -2.22392,-40.823455 -2.8706,-2.097973 -70.24851,-2.097311 -73.11774,7.19e-4 C 737.57472,54.78414 737.5,56.403979 737.5,95.5 c 0,39.09602 0.0747,40.71586 1.94113,42.08061 1.58825,1.16136 8.2559,1.41939 36.67742,1.41939 l 34.73629,0 2.10537,-2.67654 z M 776.30576,107.58658 773.5,105.17317 773.5,89 l 0,-16.173167 2.80576,-2.413417 C 778.93148,68.154869 779.87441,68 791,68 c 11.12559,0 12.06852,0.154869 14.69424,2.413416 L 808.5,72.826833 808.5,89 l 0,16.17317 -2.80576,2.41341 C 803.06852,109.84513 802.12559,110 791,110 c -11.12559,0 -12.06852,-0.15487 -14.69424,-2.41342 z M 803.8,104.8 c 0.82374,-0.82374 1.2,-5.777778 1.2,-15.8 0,-10.022222 -0.37626,-14.976256 -1.2,-15.8 -1.65487,-1.654873 -23.94513,-1.654873 -25.6,0 -0.82374,0.823744 -1.2,5.777778 -1.2,15.8 0,10.022222 0.37626,14.97626 1.2,15.8 1.65487,1.65487 23.94513,1.65487 25.6,0 z"
       id="path2995"
       style="fill:#563d10" />
    <path
       d="m 0.24914379,427.20687 c -0.27292154,-0.71122 -0.28004639,-1.5093 -0.015833,-1.77351 0.26421339,-0.26422 26.98230621,-0.58231 59.37353821,-0.70688 L 118.5,424.5 l 0.5,-160 0.5,-160 2.25438,-5.919275 c 2.89305,-7.596236 7.68228,-15.043406 11.35711,-17.660116 C 134.70017,79.78937 136,78.31078 136,77.634854 136,75.749938 129.03081,69.48996 124,66.856025 L 119.5,64.5 59.750086,64.5 C 0.66715085,64.5 1.6168418e-4,64.477674 -7.6401251e-4,62.5 -0.00167894,60.545337 0.58202806,60.505622 25.74915,60.748003 39.912117,60.884405 67.025,61.109405 86,61.248003 L 120.5,61.5 l 5.3375,2.811187 c 2.93563,1.546153 7.33775,4.811436 9.7825,7.256186 l 4.445,4.444998 81.2175,0.243815 c 77.73178,0.23335 81.38303,0.325989 85.07442,2.15849 7.39144,3.669313 14.29714,15.215255 16.71,27.938184 0.55237,2.91266 0.93308,68.43242 0.93308,160.58363 0,119.73829 0.27695,155.94046 1.2,156.86351 1.62152,1.62152 9.28404,1.52662 10.66059,-0.13202 0.79537,-0.95836 1.18036,-48.85658 1.37244,-170.75 L 337.5,83.5 l 2.3992,-6 C 346.46842,61.071482 358.37875,50.399719 373.79922,47.125262 377.5785,46.322751 418.50834,46 516.5,46 c 97.99166,0 138.9215,0.322751 142.70078,1.125262 15.3136,3.251763 27.50733,14.185459 33.87523,30.374738 2.2735,5.780004 2.37317,7.172919 2.71821,37.98935 0.22694,20.26877 0.74151,32.45124 1.40442,33.25 C 697.99952,149.70434 705.57501,150 729.5,150 c 27.29755,0 31.42155,-0.20055 32.56957,-1.58382 0.95117,-1.1461 1.02533,-2.04432 0.26832,-3.25 -0.83196,-1.32507 -3.2044,-1.76854 -11.58846,-2.16618 -8.67579,-0.41147 -10.9392,-0.8541 -12.78389,-2.5 C 733.19672,136.2451 733,134.46236 733,95.5 c 0,-38.964488 0.1967,-40.74653 4.96697,-45 2.15437,-1.920965 3.65734,-2 38.03303,-2 34.37569,0 35.87866,0.07903 38.03303,2 4.77027,4.25347 4.96697,6.035512 4.96697,45 0,38.89497 -0.20319,40.75311 -4.91582,44.95371 -1.6061,1.43159 -4.22091,2.09971 -9.78431,2.5 -8.28351,0.59601 -10.95901,2.34222 -8.36944,5.46247 1.14341,1.37772 5.04626,1.58382 29.99201,1.58382 20.97144,0 29.00002,-0.32246 29.87756,-1.2 0.87658,-0.87658 1.2,-8.79868 1.2,-29.39405 0,-43.489507 3.03818,-65.444129 10.02305,-72.429002 C 868.92295,45.07705 870.48103,45 907,45 c 35.89531,0 38.10441,0.104415 39.8852,1.885198 2.68525,2.68525 5.84404,11.719196 7.83619,22.410992 1.56934,8.422587 1.74137,23.797617 2.02677,181.13751 0.22207,122.42689 0.62643,172.31272 1.4043,173.25 1.50751,1.81644 51.83834,1.92555 53.64754,0.1163 0.9223,-0.92235 1.2046,-35.45552 1.2198,-149.25 0.012,-92.75875 0.3915,-150.66424 1.015,-155.05 2.4191,-17.01469 7.514,-30.909598 15.3712,-41.920457 4.7454,-6.650082 8.4007,-9.857955 15.594,-13.685258 l 4.5,-2.394285 43,-0.251403 c 23.65,-0.138272 57.5128,-0.363272 75.2506,-0.5 31.6671,-0.244098 32.2506,-0.212405 32.25,1.751403 -7e-4,1.982157 -0.6676,2 -74.7507,2 l -74.7499,0 -5.0765,2.678913 C 1034.757,72.807784 1024.6637,87.41315 1020.1272,103.7837 1016,118.67712 1015.8931,123.3962 1016.2027,277 l 0.2973,147.5 91.7501,0 c 91.0834,0 91.75,0.0145 91.75,2 -10e-5,1.99778 -0.6668,2 -599.62742,2 -489.44529,0 -599.71849626,-0.23761 -600.12353621,-1.29313 z M 319.8,423.8 c 1.57761,-1.57761 1.75132,-308.61991 0.17929,-316.90918 -1.26989,-6.6961 -6.22086,-17.452172 -9.78907,-21.266919 C 308.7106,84.042047 305.7,81.91443 303.5,80.895863 c -3.78537,-1.752569 -8.18527,-1.851939 -82,-1.851939 -73.81473,0 -78.21463,0.09937 -82,1.851939 -2.2,1.018567 -5.2106,3.146184 -6.69022,4.728038 -3.56821,3.814747 -8.51918,14.570819 -9.78907,21.266919 -1.57203,8.28927 -1.39832,315.33157 0.17929,316.90918 1.74037,1.74037 194.85963,1.74037 196.6,0 z M 909.75422,309.70627 c 0.27946,-126.18938 0.44793,-122.24056 -5.78568,-135.61221 -3.41943,-7.33497 -10.38103,-15.12354 -16.46854,-18.42483 l -4,-2.16923 -93.5,0 -93.5,0 -0.25709,134.5 c -0.14141,73.975 -0.0422,135.06455 0.22036,135.75455 0.37959,0.99741 22.26086,1.20237 106.75709,1 L 909.5,424.5 909.75422,309.70627 z m 43.15589,113.90204 c 0.86656,-1.04414 1.06464,-44.30932 0.79318,-173.25 C 953.31578,66.299174 953.50832,73.470122 948.51683,57.194895 945.52173,47.429087 948.07255,48 907.43426,48 c -21.70085,0 -36.29119,0.388245 -37.42662,0.995913 -2.51548,1.346244 -5.67031,10.145919 -7.6365,21.300277 -2.07752,11.785959 -3.264,75.92305 -1.44506,78.11475 0.80573,0.97083 4.44035,1.48678 12.35768,1.7542 10.15541,0.34302 11.72275,0.65732 16.57165,3.32316 6.8945,3.79046 12.56317,10.21923 16.78917,19.04039 6.5303,13.63105 6.31889,9.11083 6.33806,135.52131 0.0133,87.74161 0.2982,114.83084 1.21736,115.75 1.85193,1.85193 37.15916,1.67709 38.71011,-0.19169 z M 691.75294,256.66848 C 692.02962,74.174091 692.28504,82.806365 686.28209,71.776965 682.489,64.807802 672.413,55.709855 665.31703,52.846928 L 659.5,50.5 l -143,0 -143,0 -5.81703,2.346928 c -12.1126,4.886926 -23.18971,18.708495 -25.67769,32.039562 -1.13073,6.058673 -1.45942,337.32603 -0.33582,338.44964 0.3682,0.3682 79.2307,0.5557 175.25,0.41666 L 691.5,423.5 691.75294,256.66848 z m 99.31663,-108.2523 c 0.95388,-1.14936 1.02615,-2.04088 0.26345,-3.25 C 790.4535,143.77183 788.44138,143.5 779,143.5 c -9.44138,0 -11.4535,0.27183 -12.33302,1.66618 -0.7627,1.20912 -0.69043,2.10064 0.26345,3.25 C 767.98066,149.68162 770.40687,150 779,150 c 8.59313,0 11.01934,-0.31838 12.06957,-1.58382 z m 21.89064,-12.09272 c 2.07109,-2.63297 2.10077,-3.31813 1.82258,-42.081335 -0.27039,-37.677457 -0.36788,-39.466973 -2.22392,-40.823455 -2.8706,-2.097973 -70.24851,-2.097311 -73.11774,7.19e-4 C 737.57472,54.78414 737.5,56.403979 737.5,95.5 c 0,39.09602 0.0747,40.71586 1.94113,42.08061 1.58825,1.16136 8.2559,1.41939 36.67742,1.41939 l 34.73629,0 2.10537,-2.67654 z M 776.30576,107.58658 773.5,105.17317 773.5,89 l 0,-16.173167 2.80576,-2.413417 C 778.93148,68.154869 779.87441,68 791,68 c 11.12559,0 12.06852,0.154869 14.69424,2.413416 L 808.5,72.826833 808.5,89 l 0,16.17317 -2.80576,2.41341 C 803.06852,109.84513 802.12559,110 791,110 c -11.12559,0 -12.06852,-0.15487 -14.69424,-2.41342 z M 803.8,104.8 c 0.82374,-0.82374 1.2,-5.777778 1.2,-15.8 0,-10.022222 -0.37626,-14.976256 -1.2,-15.8 -1.65487,-1.654873 -23.94513,-1.654873 -25.6,0 -0.82374,0.823744 -1.2,5.777778 -1.2,15.8 0,10.022222 0.37626,14.97626 1.2,15.8 1.65487,1.65487 23.94513,1.65487 25.6,0 z"
       id="path2993"
       style="fill:#264e26" />
    <path
       d="m 0.24914379,427.20687 c -0.27292154,-0.71122 -0.28004639,-1.5093 -0.015833,-1.77351 0.26421339,-0.26422 26.98230621,-0.58231 59.37353821,-0.70688 L 118.5,424.5 l 0.5,-160 0.5,-160 2.25438,-5.919275 c 2.89305,-7.596236 7.68228,-15.043406 11.35711,-17.660116 C 134.70017,79.78937 136,78.31078 136,77.634854 136,75.749938 129.03081,69.48996 124,66.856025 L 119.5,64.5 59.750086,64.5 C 0.66715085,64.5 1.6168418e-4,64.477674 -7.6401251e-4,62.5 -0.00167893,60.545345 0.58213293,60.505616 25.74915,60.747688 39.912117,60.883917 66.8,61.108917 85.5,61.247688 l 34,0.252312 5.38279,2.834134 c 2.96053,1.558774 7.52965,4.842278 10.1536,7.296676 l 4.77082,4.462542 79.40668,-0.06925 c 87.74971,-0.07653 84.80278,-0.278154 91.6175,6.268431 4.09715,3.93595 7.44675,9.496339 10.41395,17.287375 L 323.5,105.5 324,265 l 0.5,159.5 6,0 6,0 0.5,-170 0.5,-170 2.65753,-6.623391 c 1.46164,-3.642865 3.76309,-8.367865 5.11432,-10.5 5.86806,-9.259304 18.47217,-17.903834 29.52737,-20.251347 7.50402,-1.59344 275.89754,-1.59344 283.40156,0 15.50228,3.291827 28.19323,14.535073 34.55635,30.614383 2.65818,6.717087 2.67872,6.968363 3.20909,39.260355 l 0.53378,32.5 33,0 33,0 0,-3 0,-3 -10.67075,-0.5 c -9.6264,-0.45107 -10.93578,-0.74467 -13.37887,-3 C 733.13914,135.09696 733,133.96094 733,95.5 733,57.037397 733.13911,55.901909 738.45169,51 l 2.70944,-2.5 34.83887,0 34.83887,0 2.70944,2.5 C 818.86089,55.901909 819,57.037397 819,95.5 c 0,38.40582 -0.1457,39.605 -5.40076,44.45216 -2.18779,2.01797 -4.02552,2.54916 -10.37888,3 L 795.5,143.5 l 0,3 0,3 30.5,0 30.5,0 0.64249,-35 c 0.71506,-38.953658 1.7023,-48.160633 6.57294,-61.299008 C 866.86144,44.714738 865.34956,45 907.18031,45 l 36.9106,0 2.31257,2.31257 c 3.08936,3.089359 6.22705,11.760557 8.31667,22.98362 1.56196,8.389049 1.76085,24.474264 2.24675,181.70381 l 0.5331,172.5 27.5,0 27.5,0 0.5559,-153 c 0.503,-138.43068 0.715,-153.63921 2.2268,-159.71267 6.0789,-24.42143 15.4011,-39.543614 28.8831,-46.853135 L 1050.5,61.5 1093,61.248383 c 23.375,-0.138389 57.0128,-0.363389 74.7506,-0.5 31.667,-0.243888 32.2506,-0.212187 32.25,1.751617 -7e-4,1.982157 -0.6676,2 -74.7507,2 l -74.7499,0 -5.0765,2.678913 C 1034.757,72.807784 1024.6637,87.41315 1020.1272,103.7837 1016,118.67712 1015.8931,123.3962 1016.2027,277 l 0.2973,147.5 91.7501,0 c 91.0834,0 91.75,0.0145 91.75,2 -10e-5,1.99778 -0.6668,2 -599.62742,2 -489.44529,0 -599.71849626,-0.23761 -600.12353621,-1.29313 z M 319.8,423.8 c 1.56596,-1.56596 1.75239,-309.6143 0.19235,-317.84035 -2.14747,-11.323549 -9.408,-22.436242 -16.71023,-25.576034 -4.77237,-2.05201 -158.79187,-2.05201 -163.56424,0 -7.30223,3.139792 -14.56276,14.252485 -16.71023,25.576034 -1.56004,8.22605 -1.37361,316.27439 0.19235,317.84035 1.74037,1.74037 194.85963,1.74037 196.6,0 z M 692.77335,257.5 c 0.30053,-183.605203 0.56097,-175.113927 -5.70709,-186.069372 -3.41385,-5.966801 -10.92311,-13.65656 -16.59091,-16.989711 -9.68799,-5.69736 -3.71202,-5.498579 -156.56601,-5.207916 L 373.5,49.5 368,51.730953 c -10.43987,4.234702 -20.63678,14.77454 -25.18172,26.028585 L 340.5,83.5 340.23301,252.98454 c -0.14684,93.2165 -0.048,170.05525 0.21969,170.75279 0.39103,1.019 35.03213,1.21856 176.26698,1.01546 L 692.5,424.5 l 0.27335,-167 z m 216.98087,52.20627 c 0.27946,-126.18938 0.44793,-122.24056 -5.78568,-135.61221 -3.41943,-7.33497 -10.38103,-15.12354 -16.46854,-18.42483 l -4,-2.16923 -93.5,0 -93.5,0 -0.25709,134.5 c -0.14141,73.975 -0.0422,135.06455 0.22036,135.75455 0.37959,0.99741 22.26086,1.20237 106.75709,1 L 909.5,424.5 909.75422,309.70627 z M 953.5,253 C 953.5,71.785171 953.54237,73.598924 948.94259,57.90971 945.83135,47.297731 948.816,48 906.82625,48 c -41.15742,0 -38.30862,-0.552873 -41.33393,8.02177 -3.91723,11.102612 -4.85818,22.27207 -4.92639,58.47823 l -0.0659,35 11.5,0.59759 c 12.7508,0.66259 13.29266,0.81194 20.73236,5.7143 6.71404,4.42419 13.48746,14.24756 17.0628,24.74587 L 912.5,188.5 l 0.25777,117 c 0.14177,64.35 0.46881,117.57205 0.72676,118.27122 0.36242,0.98237 4.96191,1.20959 20.24223,1 L 953.5,424.5 953.5,253 z m -162,-106.5 0,-3 -12.4863,0 c -11.25031,0 -12.52078,0.17901 -12.83458,1.80841 -0.85567,4.44312 0.0958,4.76917 13.05137,4.47253 L 791.5,149.5 l 0,-3 z m 20.13968,-7.96017 c 4.23805,-2.96845 4.44549,-5.21609 4.1457,-44.919813 L 815.5,55.825069 812.69424,53.412534 809.88847,51 776,51 l -33.88847,0 -2.80577,2.413416 -2.80576,2.413417 0,39.673167 0,39.67317 2.80576,2.41341 2.80577,2.41342 33.72173,0 c 27.94761,0 34.07869,-0.25002 35.80642,-1.46017 z M 775.5567,106.77749 C 774.30974,104.9972 774,101.46001 774,89 c 0,-21.063518 -0.90399,-20 17,-20 17.90399,0 17,-1.063518 17,20 0,21.06352 0.90399,20 -17,20 -13.21639,0 -13.96172,-0.10726 -15.4433,-2.22251 z M 804.5,89 l 0,-16.5 -13.5,0 -13.5,0 -0.27717,15.458013 c -0.15244,8.501907 -0.049,16.052527 0.22981,16.779167 0.39257,1.02301 3.50158,1.25815 13.77717,1.04199 L 804.5,105.5 804.5,89 z"
       id="path2991"
       style="fill:#0a0d0b" />
  </g>
  <path
     d="M 0.99999795,428.75 C 0.99999631,427.75111 121.33245,427.55055 600,427.75166 c 397.8361,0.16714 599,0.58693 599,1.25 C 1199,429.665 998.00415,430 600,430 121.46667,430 0.99999959,429.74861 0.99999795,428.75 z M 0.999824,424.25 C 0.99996278,423.26437 13.263186,423 58.982127,423 l 57.982123,0 0.26788,-159.75 0.26787,-159.75 2.25466,-5.920093 c 3.10014,-8.140083 6.53684,-13.75065 10.61746,-17.333485 l 3.44857,-3.027883 -3.16035,-3.00147 C 128.92216,72.56626 125.475,70.154589 123,68.857799 L 118.5,66.5 59.75,66.219406 C 21.455173,66.036507 1,65.590799 1,64.939272 1,64.281245 21.414823,64.035445 60.75,64.219866 L 120.5,64.5 125,66.856025 c 4.68804,2.454477 12,8.853045 12,10.500995 0,0.523118 -1.80317,2.494572 -4.00705,4.381008 -4.58741,3.926654 -8.00522,9.352761 -11.23829,17.841879 L 119.5,105.5 l -0.26787,159.73434 -0.26787,159.73434 -58.982304,0.26566 C 13.321018,425.4445 0.99968476,425.23888 0.999824,424.25 z M 122,267.63649 c 0,-101.52366 0.35756,-159.24892 1.00765,-162.67684 2.12576,-11.209077 8.7672,-21.599711 15.71023,-24.578892 4.77125,-2.047292 160.79299,-2.047292 165.56424,0 6.94303,2.979181 13.58447,13.369815 15.71023,24.578892 C 320.64244,108.38757 321,166.11283 321,267.63649 L 321,425 l -99.5,0 -99.5,0 0,-157.36351 z m 197,0 c 0,-100.1802 -0.35791,-157.25074 -1.00765,-160.67684 -2.12576,-11.209077 -8.7672,-21.599711 -15.71023,-24.578892 -4.76957,-2.046571 -156.79467,-2.046571 -161.56424,0 -6.94303,2.979181 -13.58447,13.369815 -15.71023,24.578892 C 124.35791,110.38575 124,167.45629 124,267.63649 L 124,423 l 97.5,0 97.5,0 0,-155.36351 z m 5,1 C 324,176.05208 323.61941,110.26611 323.06692,107.35286 320.62313,94.466816 313.46939,82.753745 305.5,78.589912 c -3.95129,-2.064464 -4.98666,-2.092471 -85.02954,-2.300094 l -81.02955,-0.210182 -4.72041,-4.522948 c -2.59622,-2.487622 -7.08293,-5.76804 -9.97045,-7.289818 L 119.5,61.5 60.25,61.219638 C 21.621566,61.036854 1,60.59139 1,59.939728 1,59.281629 21.581518,59.035799 61.25,59.220091 L 121.5,59.5 l 5.25005,2.76687 c 2.88752,1.521778 7.34748,4.776571 9.91102,7.232873 l 4.66098,4.466003 81.08898,0.267127 c 80.047,0.263694 81.14037,0.293982 85.08897,2.357039 7.96939,4.163833 15.12313,15.876904 17.56692,28.762948 C 325.61941,108.26611 326,174.05208 326,266.63649 L 326,423 l 4.48318,0 4.48318,0 0.26682,-170.25 L 335.5,82.5 l 2.3992,-6 c 6.65778,-16.649979 19.36838,-28.076677 34.90002,-31.374738 7.50562,-1.593779 279.89594,-1.593779 287.40156,0 15.43106,3.276704 28.41263,14.954546 34.87746,31.374738 2.28191,5.795898 2.37426,7.114057 2.71467,38.75 l 0.35241,32.75 31.42734,0 C 755.96589,148 761,147.7739 761,146.58848 c 0,-1.10855 -2.34438,-1.48418 -10.92218,-1.75 C 740.05865,144.52798 738.93185,144.29331 736.44894,142 731.111,137.06969 731,136.12242 731,95.5 731,54.874009 731.11092,53.927919 736.45169,49 l 2.70944,-2.5 36.83887,0 36.83887,0 2.70944,2.5 C 820.88908,53.927919 821,54.874009 821,95.5 c 0,40.62119 -0.11147,41.57266 -5.44748,46.49605 -2.31369,2.13478 -3.8521,2.54814 -10.62888,2.85589 C 798.98661,145.12155 797,145.5613 797,146.60589 797,147.76599 801.86782,148 826,148 l 29,0 0,-28.89405 c 0,-38.587316 2.01211,-57.72408 7.24299,-68.886411 C 865.76952,42.694153 863.86209,43 907.26796,43 l 38.82295,0 2.31257,2.31257 c 3.08864,3.088638 6.22633,11.758365 8.31809,22.98362 1.56982,8.424328 1.74144,23.834216 2.0265,181.95381 l 0.31144,172.75 25.97025,0 25.97024,0 0.02,-148.75 c 0.012,-93.2232 0.3913,-151.36303 1.015,-155.75 3.97,-27.922897 15.1395,-47.706535 31.9652,-56.616927 l 4.5,-2.383073 75.25,-0.274437 c 49.6679,-0.181138 75.25,0.06542 75.25,0.725262 0,0.654821 -25.6148,1.094478 -74.25,1.274437 L 1050.5,61.5 1046,63.883073 c -16.8257,8.910392 -27.9952,28.69403 -31.9652,56.616927 -0.6237,4.38697 -1.0026,62.5268 -1.015,155.75 L 1013,425 l -27.97024,0 -27.97025,0 -0.31144,-172.75 C 956.46301,94.130406 956.29139,78.720518 954.72157,70.29619 952.62981,59.070935 949.49212,50.401208 946.40348,47.31257 L 944.09091,45 907.26796,45 c -41.1846,0 -39.51009,-0.280981 -43.02497,7.219539 C 859.01211,63.38187 857,82.518634 857,121.10595 L 857,150 l -31,0 -31,0 0,-3.39411 0,-3.39412 7.92364,-0.35983 c 6.77678,-0.30775 8.31519,-0.72111 10.62888,-2.85589 C 818.86035,135.09866 819,133.95796 819,95.5 819,57.037397 818.86089,55.901909 813.54831,51 l -2.70944,-2.5 -34.83887,0 -34.83887,0 -2.70944,2.5 C 733.13911,55.901909 733,57.037397 733,95.5 c 0,38.45912 0.13917,39.59571 5.44894,44.5 2.48291,2.29331 3.60971,2.52798 13.62888,2.83848 L 763,143.17695 l 0,3.41153 0,3.41152 -33.42734,0 -33.42734,0 -0.35241,-32.75 C 695.4525,85.614057 695.36015,84.295898 693.07824,78.5 686.61341,62.079808 673.63184,50.401966 658.20078,47.125262 c -7.50402,-1.59344 -275.89754,-1.59344 -283.40156,0 C 359.26758,50.423323 346.55698,61.850021 339.8992,78.5 l -2.3992,6 -0.26682,170.25 -0.26682,170.25 -6.48318,0 L 324,425 324,268.63649 z M 340.23327,253.75 340.5,82.5 343.13437,76.248484 C 347.90883,64.918415 356.64551,55.944846 367,51.735748 L 372.5,49.5 513.90979,49.233116 c 153.9706,-0.29059 147.89108,-0.491809 157.56556,5.215064 5.57234,3.287065 12.76502,10.740145 15.86941,16.443927 5.88108,10.805485 5.62434,2.3455 5.64046,185.857893 L 693,425 l -176.51673,0 -176.51673,0 0.26673,-171.25 z m 350.75195,3 C 690.9691,75.427028 691.22264,83.691717 685.34476,72.892107 682.24037,67.188325 675.04769,59.735245 669.47535,56.44818 659.80668,50.744738 665.69257,50.94206 513.90889,51.232885 L 374.5,51.5 369,53.735748 c -10.35449,4.209098 -19.09117,13.182667 -23.86563,24.512736 L 342.5,84.5 342.23308,253.75 341.96617,423 516.48308,423 691,423 690.98522,256.75 z M 696,288.98016 l 0,-136.01983 94.25,0.26983 94.25,0.26984 4.58364,2.69466 c 6.1894,3.63866 11.54333,9.78365 15.0464,17.26952 5.98601,12.79182 5.83362,9.25614 5.8526,135.78582 L 910,425 l -107,0 -107,0 0,-136.01984 z M 907.98264,309.25 c -0.019,-124.34048 0.12679,-121.00814 -5.8526,-133.78582 -3.50307,-7.48587 -8.857,-13.63086 -15.0464,-17.26952 L 882.5,155.5 790.25,155.22976 698,154.95953 698,288.97976 698,423 l 105,0 105,0 -0.0174,-113.75 z m 4.79119,-2 L 912.5,189.5 909.70681,181.25101 C 904.64059,166.28917 894.54018,154.78667 883.5685,151.48433 880.71651,150.62591 874.66443,150 869.21616,150 l -9.42083,0 0.46963,-36.25 c 0.47986,-37.040195 1.4582,-48.0453 5.21868,-58.703626 C 868.1457,47.50129 865.20736,48 907,48 c 42.23541,0 39.08247,-0.583033 41.6593,7.703538 4.82495,15.516111 4.65886,9.093582 5.04396,195.046462 l 0.36086,174.25 -20.50823,0 -20.50823,0 -0.27383,-117.75 z m 38.9294,-56.5 C 951.31745,66.967958 951.48047,73.20752 946.6593,57.703538 944.08766,49.433666 947.00326,50 907,50 c -39.58035,0 -36.85905,-0.48525 -39.51636,7.046374 -3.68382,10.441047 -4.72865,21.796942 -5.21716,56.703626 l -0.47933,34.25 9.42492,0 c 5.45189,0 11.50378,0.62571 14.35643,1.48433 10.97168,3.30234 21.07209,14.80484 26.13831,29.76668 L 914.5,187.5 l 0.27383,117.75 0.27383,117.75 18.50858,0 18.50857,0 -0.36158,-172.25 z m 64.30267,24.5 c 0.01,-158.28384 0.029,-159.1379 4.5595,-174.25 4.4483,-14.83635 14.2525,-28.755372 23.8031,-33.793196 L 1049.5,64.5 l 74.75,-0.274587 c 49.3345,-0.181225 74.75,0.06532 74.75,0.725108 0,0.654738 -25.4483,1.09455 -73.75,1.274587 L 1051.5,66.5 l -5.1315,2.706804 c -9.5506,5.037824 -19.3548,18.956846 -23.8031,33.793196 -4.5265,15.09746 -4.5533,16.10754 -4.5595,172.25 L 1018,423 l 90.5,0 c 59.6667,0 90.5,0.3407 90.5,1 0,0.65938 -31.1667,1 -91.5,1 l -91.5,0 0.01,-149.75 z M 766,146.5 l 0,-3.5 13,0 13,0 0,3.5 0,3.5 -13,0 -13,0 0,-3.5 z m 24,0 c 0,-1.24242 -1.88889,-1.5 -11,-1.5 -9.11111,0 -11,0.25758 -11,1.5 0,1.24242 1.88889,1.5 11,1.5 9.11111,0 11,-0.25758 11,-1.5 z m -51.13922,-8.41165 -2.36078,-1.91164 0,-40.67671 0,-40.676706 2.36078,-1.911647 C 741.08406,51.111349 743.24733,51 776,51 c 32.74709,0 34.91632,0.111608 37.13922,1.910824 l 2.36078,1.910825 0.29021,38.339175 c 0.15962,21.086546 0.0357,39.363126 -0.27543,40.614616 -0.31111,1.25149 -1.45421,3.16399 -2.54022,4.25 -1.89062,1.89062 -3.45771,1.97456 -36.86378,1.97456 -32.86174,0 -35.0264,-0.11109 -37.25,-1.91165 z m 72.11378,-2.06291 c 1.08601,-1.08601 2.22951,-2.99851 2.5411,-4.25 0.3116,-1.25149 0.43554,-18.6281 0.27544,-38.614686 L 813.5,56.821508 811.13922,54.910754 C 808.92253,53.116626 806.77775,53 776,53 c -30.78348,0 -32.92211,0.116346 -35.13922,1.911647 L 738.5,56.823294 738.5,95.5 l 0,38.67671 2.36078,1.91164 c 2.21747,1.7956 4.35745,1.91165 35.25,1.91165 31.41466,0 32.97775,-0.0885 34.86378,-1.97456 z m -36.90198,-27.6603 C 772.16339,105.938 772,104.41138 772,89 c 0,-15.41138 0.16339,-16.937997 2.07258,-19.365141 L 776.14516,67 791,67 l 14.85484,0 2.07258,2.634859 C 809.83661,72.062003 810,73.58862 810,89 c 0,15.41138 -0.16339,16.938 -2.07258,19.36514 L 805.85484,111 791,111 l -14.85484,0 -2.07258,-2.63486 z m 31.85484,-2 C 807.81114,103.97038 808,102.38803 808,89 808,75.611966 807.81114,74.029625 805.92742,71.634859 803.88041,69.032514 803.69621,69 791,69 778.30379,69 778.11959,69.032514 776.07258,71.634859 774.18886,74.029625 774,75.611966 774,89 c 0,13.38803 0.18886,14.97038 2.07258,17.36514 C 778.11959,108.96749 778.30379,109 791,109 c 12.69621,0 12.88041,-0.0325 14.92742,-2.63486 z M 777,89 l 0,-17 14,0 14,0 0,17 0,17 -14,0 -14,0 0,-17 z m 26,0 0,-15 -12,0 -12,0 0,15 0,15 12,0 12,0 0,-15 z"
     id="path2987"
     style="fill:#000000" />
</svg>
